<?xml version="1.0" encoding="UTF-8"?>
<!DOCTYPE svg PUBLIC "-//W3C//DTD SVG 1.1//EN" "http://www.w3.org/Graphics/SVG/1.1/DTD/svg11.dtd">
<!-- Creator: CorelDRAW X8 -->
<svg xmlns="http://www.w3.org/2000/svg" xml:space="preserve" width="2.42333in" height="2.42333in" version="1.1" style="shape-rendering:geometricPrecision; text-rendering:geometricPrecision; image-rendering:optimizeQuality; fill-rule:evenodd; clip-rule:evenodd"
viewBox="0 0 2423 2423"
 xmlns:xlink="http://www.w3.org/1999/xlink">
 <defs>
  <style type="text/css">
   <![CDATA[
    .str2 {stroke:#1B61AB;stroke-width:4.16535}
    .str1 {stroke:#1B61AB;stroke-width:6.94488}
    .str0 {stroke:#1B61AB;stroke-width:3}
    .str3 {stroke:#1B61AB;stroke-width:13.8898;stroke-linejoin:round}
    .fil2 {fill:none}
    .fil1 {fill:#1B61AB}
    .fil0 {fill:#1B61AB;fill-rule:nonzero}
   ]]>
  </style>
 </defs>
 <g id="Layer_x0020_1">
  <metadata id="CorelCorpID_0Corel-Layer"/>
  <g id="_927448228032">
   <path class="fil0" d="M146 1940c0,20 -15,35 -39,35 -25,0 -40,-9 -42,-10l-1 0 0 15c5,3 19,9 40,9 35,0 59,-20 59,-50 0,-58 -80,-39 -80,-85 0,-16 11,-30 37,-30 23,0 37,9 38,10l0 -16c0,-1 -15,-8 -36,-8 -37,0 -58,21 -58,48 0,27 24,38 41,45l8 3c15,6 33,14 33,34z"/>
   <path id="1" class="fil0" d="M230 1909c3,0 5,0 7,0l51 78 20 0 -53 -80c23,-6 42,-22 42,-50 0,-26 -16,-40 -35,-43 -9,-2 -15,-2 -23,-2l-42 0 0 175 18 0 0 -78 15 0zm-15 -83l23 0c20,0 40,4 40,32 0,25 -17,38 -45,38l-18 0 0 -70z"/>
   <polygon id="2" class="fil0" points="339,1812 339,1987 357,1987 357,1812 "/>
   <polygon id="3" class="fil0" points="533,1955 532,1955 471,1812 451,1812 532,1993 613,1812 593,1812 "/>
   <polygon id="4" class="fil0" points="640,1812 640,1987 739,1987 739,1973 658,1973 658,1900 733,1900 733,1886 658,1886 658,1826 739,1826 739,1812 "/>
   <polygon id="5" class="fil0" points="775,1987 792,1987 792,1854 793,1854 911,1992 911,1812 893,1812 893,1945 892,1945 775,1807 "/>
   <path id="6" class="fil0" d="M979 1890l0 7 76 90 22 0 -80 -94 0 -2 75 -79 -21 0 -72 78zm-9 -78l-18 0 0 175 18 0 0 -175z"/>
   <path id="7" class="fil0" d="M1234 1987l19 0 -82 -180 -83 180 19 0 23 -53 80 0 24 53zm-65 -144l1 0 34 77 -69 0 34 -77z"/>
   <polygon id="8" class="fil0" points="1306,1826 1361,1826 1361,1812 1234,1812 1234,1826 1288,1826 1288,1987 1306,1987 "/>
   <polygon id="9" class="fil0" points="1386,1812 1386,1987 1485,1987 1485,1973 1404,1973 1404,1900 1480,1900 1480,1886 1404,1886 1404,1826 1485,1826 1485,1812 "/>
   <path id="10" class="fil0" d="M1595 1940c0,20 -14,35 -38,35 -25,0 -40,-9 -43,-10l0 0 0 15c4,3 19,9 40,9 35,0 59,-20 59,-50 0,-58 -81,-39 -81,-85 0,-16 11,-30 38,-30 23,0 37,9 38,10l0 -16c-1,-1 -16,-8 -36,-8 -37,0 -58,21 -58,48 0,27 24,38 40,45l9 3c14,6 32,14 32,34z"/>
   <polygon id="11" class="fil0" points="1792,1954 1791,1954 1760,1886 1793,1812 1776,1812 1752,1870 1752,1870 1729,1812 1711,1812 1743,1885 1714,1954 1712,1954 1651,1812 1631,1812 1712,1993 1751,1902 1752,1902 1791,1993 1872,1812 1854,1812 "/>
   <path id="12" class="fil0" d="M2000 1987l19 0 -83 -180 -83 180 19 0 24 -53 79 0 25 53zm-65 -144l0 0 35 77 -70 0 35 -77z"/>
   <path id="13" class="fil0" d="M2076 1909c2,0 5,0 7,0l51 78 19 0 -52 -80c23,-6 42,-22 42,-50 0,-26 -17,-40 -36,-43 -9,-2 -14,-2 -22,-2l-43 0 0 175 18 0 0 -78 16 0zm-16 -83l24 0c19,0 40,4 40,32 0,25 -17,38 -45,38l-19 0 0 -70z"/>
   <path id="14" class="fil0" d="M2314 1987l19 0 -83 -180 -83 180 19 0 24 -53 79 0 25 53zm-65 -144l0 0 35 77 -70 0 35 -77z"/>
   <path class="fil0" d="M223 2009l43 0 0 196c0,13 -3,26 -8,38 -6,12 -13,22 -22,30 -9,9 -20,16 -32,21 -12,5 -25,8 -39,8 -14,0 -27,-3 -39,-8 -12,-5 -22,-12 -31,-21 -9,-8 -16,-18 -21,-30 -5,-12 -8,-25 -8,-38l0 -196 42 0 0 196c0,7 2,15 5,22 3,6 7,12 12,18 5,5 11,9 18,12 7,3 15,4 22,4 8,0 16,-1 23,-4 7,-3 13,-7 18,-12 6,-6 10,-12 13,-18 3,-7 4,-15 4,-22l0 -196z"/>
   <polygon id="1" class="fil0" points="370,2117 370,2303 329,2303 329,2004 521,2231 521,2009 562,2009 562,2303 522,2303 "/>
   <polygon id="2" class="fil0" points="626,2302 626,2009 669,2009 669,2302 "/>
   <polygon id="3" class="fil0" points="853,2193 929,2009 974,2009 853,2304 733,2009 778,2009 "/>
   <polygon class="fil0" points="1750,2303 1750,2010 1793,2010 1793,2303 "/>
   <polygon id="1" class="fil0" points="1856,2051 1856,2010 2044,2010 2044,2051 1971,2051 1971,2303 1929,2303 1929,2051 "/>
   <polygon id="2" class="fil0" points="2285,2010 2333,2010 2333,2010 2333,2010 2241,2207 2241,2303 2241,2304 2199,2304 2199,2303 2199,2207 2107,2010 2108,2010 2107,2010 2155,2010 2220,2166 "/>
   <path class="fil0" d="M2301 2281c3,0 5,1 7,3 2,2 3,4 3,7 0,3 -1,6 -3,8 -2,2 -4,3 -7,3 -3,0 -6,-1 -8,-3 -2,-2 -3,-5 -3,-8 0,-3 1,-5 3,-7 2,-2 5,-3 8,-3z"/>
   <path class="fil0" d="M1010 2302l0 -49 193 0 0 49 -193 0zm171 -170l0 48 -171 0 0 -48 171 0zm-171 -122l193 0 0 49 -193 0 0 -49z"/>
   <path id="1" class="fil0" d="M1471 2302l-54 0 -64 -119 -107 0 0 -49 139 0c6,0 12,-1 16,-4 4,-3 8,-6 11,-12 4,-5 5,-12 5,-22 0,-9 -1,-16 -5,-21 -3,-5 -7,-9 -11,-12 -4,-2 -10,-4 -16,-4l-139 0 0 -49 139 0c15,1 29,5 41,11 4,3 9,6 14,11 5,4 9,9 13,15 4,6 7,13 9,21 2,8 4,18 4,29 0,17 -3,32 -9,43 -6,11 -12,20 -19,26 -7,7 -14,11 -20,13 -6,3 -10,4 -11,4l64 119z"/>
   <path class="fil0" d="M1636 2225c0,-7 -3,-12 -8,-18 -6,-5 -19,-12 -38,-22 -29,-12 -49,-25 -59,-39 -11,-13 -17,-30 -17,-50 0,-25 9,-46 26,-62 17,-17 39,-25 67,-25 29,0 52,8 70,25 17,16 26,38 26,65l-70 0c0,-23 -9,-35 -27,-35 -7,0 -13,3 -18,8 -5,5 -7,11 -7,20 0,7 3,12 8,17 5,5 17,12 37,21 28,11 48,24 60,38 12,14 18,32 18,54 0,26 -9,46 -27,62 -18,15 -41,23 -70,23 -20,0 -37,-4 -52,-12 -15,-8 -27,-20 -35,-35 -9,-14 -13,-30 -13,-47l66 0c1,13 3,23 9,29 5,7 14,10 26,10 19,0 28,-9 28,-27z"/>
   <g>
    <path class="fil0" d="M2371 2272l0 20c1,0 3,-1 5,-2 1,-1 2,-2 4,-4 1,-1 2,-2 2,-4 1,-2 1,-4 1,-5 0,-3 0,-5 -1,-7 -1,-2 -2,-4 -4,-5l0 -2 0 -10c1,1 2,1 3,2 1,0 1,1 2,1 3,3 6,6 7,9 2,4 3,7 3,12 0,3 -1,6 -2,10 -1,3 -3,5 -5,8 -3,2 -5,4 -9,5 -3,2 -6,2 -10,2 -3,0 -6,0 -10,-2 -3,-1 -5,-3 -8,-5 -2,-3 -4,-5 -5,-8 -2,-4 -2,-7 -2,-10 0,-5 1,-8 2,-12 2,-3 5,-6 8,-9 2,-2 5,-3 9,-4 2,-1 4,-1 6,-1 2,0 3,0 4,0l0 10 0 11zm-19 5c0,3 1,6 2,8 2,3 4,4 7,6l0 -23 0 -6c-1,1 -1,1 -2,1 0,1 -1,1 -1,1 -2,2 -4,3 -5,6 -1,2 -1,4 -1,7z"/>
    <path id="1" class="fil0" d="M2367 2184c4,0 7,1 10,2 4,1 6,3 9,5 2,3 4,6 5,9 1,3 2,6 2,10 0,3 -1,7 -2,10 -1,3 -3,6 -5,8 -3,2 -5,4 -9,5 -3,2 -6,2 -10,2 -3,0 -6,0 -10,-2 -3,-1 -5,-3 -8,-5 -2,-2 -4,-5 -5,-8 -2,-3 -2,-7 -2,-10 0,-3 0,-6 1,-9 1,-2 2,-5 4,-7l-40 0 0 -10 60 0 0 0zm16 26c0,-3 0,-5 -1,-6 -1,-2 -2,-4 -3,-5 -2,-2 -4,-3 -5,-4 -2,-1 -4,-1 -7,-1l0 0c-2,0 -4,0 -6,1 -2,1 -3,2 -5,4 -1,1 -2,3 -3,5 -1,1 -1,3 -1,6 0,2 0,4 1,6 1,2 2,3 3,5 2,1 3,2 5,3 2,1 4,1 6,1 3,0 5,0 7,-1 1,-1 3,-2 5,-3 1,-2 2,-3 3,-5 1,-2 1,-4 1,-6z"/>
    <path id="2" class="fil0" d="M2342 2124l29 0c4,0 7,1 11,3 3,1 5,4 7,7 2,2 3,4 3,6 1,2 1,4 1,6 0,2 0,5 -1,7 0,2 -1,4 -3,6 -2,3 -4,5 -7,7 -4,2 -7,3 -11,3l-29 0 0 -10 10 0 19 0c2,0 3,-1 5,-1 1,-1 2,-2 4,-3 1,-1 2,-2 2,-4 1,-2 1,-3 1,-5 0,-1 0,-3 -1,-5 0,-1 -1,-2 -2,-3 -2,-2 -3,-3 -4,-3 -2,-1 -3,-1 -5,-1l-19 0 -10 0 0 -10z"/>
    <path id="3" class="fil0" d="M2383 2103c0,-1 0,-2 1,-3 1,-1 2,-2 4,-2 1,0 2,1 3,2 1,1 2,2 2,3 0,2 -1,3 -2,4 -1,1 -2,2 -3,2 -2,0 -3,-1 -4,-2 -1,-1 -1,-2 -1,-4z"/>
    <path class="fil0" d="M2393 2009l-29 0c-4,0 -7,1 -11,3 -3,2 -6,4 -8,7 -1,2 -2,4 -2,6 -1,2 -1,4 -1,7 0,2 0,4 1,6 0,2 1,4 2,6 2,3 5,5 8,7 4,2 7,3 11,3l29 0 0 -10 -10 0 -19 0c-2,0 -3,0 -5,-1 -1,-1 -3,-2 -4,-3 -1,-1 -2,-2 -2,-4 -1,-1 -1,-3 -1,-4 0,-2 0,-4 1,-5 0,-2 1,-3 2,-4 1,-1 3,-2 4,-3 2,0 3,-1 5,-1l19 0 10 0 0 -10z"/>
    <polygon class="fil0" points="2393,2081 2342,2081 2342,2071 2393,2071 "/>
    <path class="fil0" d="M2326 2076c0,-1 1,-2 2,-4 1,-1 2,-1 3,-1 2,0 3,0 4,1 1,2 2,3 2,4 0,2 -1,3 -2,4 -1,1 -2,2 -4,2 -1,0 -2,-1 -3,-2 -1,-1 -2,-2 -2,-4z"/>
   </g>
  </g>
  <path class="fil1 str0" d="M1364 1455l-1 -1 1 1zm-2 -2l0 1c0,0 0,-1 0,-1zm-4 -2l0 0zm-221 -116l0 0zm0 0l-1 0 1 0zm65 -1c32,0 22,-8 58,-1 3,1 4,1 7,2 23,5 11,6 40,6 7,0 14,-1 20,0 14,3 31,4 45,1 8,-2 20,-8 34,-8 14,0 8,-1 21,2 0,18 -1,14 -27,15 -6,1 -13,2 -18,4 -2,0 -2,0 -4,1 -7,3 -6,5 -9,7 -4,-8 -9,-11 -20,-11 -6,0 -17,6 -18,11 4,0 6,-1 11,-1 8,-1 9,-2 18,0 3,1 5,2 7,2 0,3 0,2 -1,3 -1,1 -2,2 -3,2 -12,6 -19,4 -33,18 -4,3 -8,7 -13,8 0,-4 -7,-11 -9,-13 -19,-13 -31,1 -45,-8 -4,-3 -4,-4 -6,-8 -4,-5 -9,-11 -14,-15 -3,-1 -6,-4 -10,-4 -8,-3 -25,-2 -31,-13zm-225 83c0,3 5,4 6,2 3,-4 4,-9 8,-13 0,0 0,0 0,0 11,-10 35,-3 46,1 7,2 16,8 23,11 17,7 44,17 67,12 3,0 7,-1 10,-3 -5,0 -8,1 -13,1 -22,0 -45,-10 -64,-19 -3,-1 -4,-2 -7,-4 -4,-2 -7,-4 -12,-6 -39,-15 -50,-1 -55,1 -1,-13 -14,-23 -25,-28 -3,-1 -10,-3 -14,-3 1,1 12,5 21,11 8,7 11,15 11,26 0,4 -2,8 -2,11zm-115 -114c-1,4 3,3 6,2 4,-1 8,-2 12,-2 5,-1 9,-2 14,-3 4,-1 9,-2 13,-2 4,-1 9,-2 13,-3 9,-2 19,-3 27,-5 22,-4 27,-6 49,1 17,5 33,11 49,19 18,8 10,1 10,-5 0,-7 31,4 32,4 16,7 25,14 39,24l33 24c2,2 2,2 4,2l2 -1c-1,-3 -18,-18 -22,-21 -2,-2 -3,-4 -5,-6 -2,-1 -2,-1 -3,-2 -4,-4 -11,-10 -14,-14 2,-4 8,-4 12,-5 6,0 11,-1 17,-1 3,0 5,0 8,0 5,-1 11,0 15,2 20,10 46,-3 69,-3 3,0 6,1 9,2 2,0 5,1 8,1 6,1 13,3 18,3 36,5 53,5 87,-5 9,-2 15,-3 24,-3 13,0 24,11 32,18 2,3 6,6 6,10 -24,-13 -49,2 -64,2 -8,0 -16,0 -23,-1 -5,-1 -9,-3 -13,-3 -10,0 -21,0 -31,0 -8,0 -7,0 -13,-2 -52,-15 -59,0 -77,-1l-8 0c-1,0 -6,-1 -8,-2 -5,-1 -11,-4 -13,-5 3,5 13,8 19,10 5,1 4,0 6,4 3,9 14,14 24,16 7,2 8,2 13,6 9,6 11,16 18,22 14,12 29,0 44,4 7,2 13,6 17,11 -6,3 -42,11 -26,24 5,5 12,8 18,12l32 17c0,0 0,0 0,0 0,0 0,0 1,0l7 3c4,3 9,5 14,7l20 11c2,1 5,3 7,3 1,3 3,2 5,3l2 -2c-1,0 -1,-2 -2,-1 -7,-5 -15,-9 -23,-13 -2,-1 -7,-3 -8,-4 7,0 8,0 11,-4 3,-4 9,-4 11,-5 -3,-4 -10,-5 -16,-2 -4,2 -6,2 -6,-3 0,-4 1,-7 1,-10 -4,1 -15,10 -7,20 -5,-1 -10,-5 -14,-6 0,-4 1,-7 3,-9 5,-8 19,-13 29,-10 15,4 13,22 13,39 2,-1 2,-2 3,-5 1,-2 1,-3 2,-5 2,-8 3,-20 -1,-27 -3,-5 -5,-4 -2,-11 8,-21 18,-22 37,-16 0,0 1,0 2,1l1 0c0,0 0,0 0,0 -13,0 -26,3 -30,16 -2,7 0,14 2,19 2,4 6,13 10,14 -1,-3 -2,-6 -2,-9 -2,-7 -3,-15 -1,-21 4,-9 24,-13 36,-7 2,0 3,1 4,2 2,1 3,2 5,2 -1,-4 -6,-8 -9,-10 -4,-3 -9,-4 -14,-6l5 -3c8,-8 20,-13 30,-6 4,3 8,8 9,8 0,-1 -2,-5 -2,-7 -9,-14 -25,-15 -39,-6 -7,5 -3,3 -13,2 -3,-1 -6,-1 -9,-1 -16,0 -26,13 -25,28 0,1 0,2 0,4 -5,-1 -5,-5 -15,-5 -11,0 -22,3 -28,11 -4,5 -5,8 -5,16l-27 -14c-3,-2 -6,-4 -9,-5 5,-8 18,-18 28,-18 6,-1 6,3 12,3 1,-2 1,-4 2,-6 2,-5 5,-9 11,-12 3,-2 9,-2 13,0 4,1 5,4 10,4 3,-3 2,-4 3,-9 1,-6 4,-13 9,-16 4,-2 17,-4 22,-3 3,0 7,2 9,3 10,5 7,10 15,10 2,-2 2,-1 3,-3 1,-4 0,-12 1,-16 1,-8 0,-25 2,-32 2,-7 7,-13 12,-17 2,-1 2,-1 4,-2 9,-4 14,1 20,1 1,0 5,-3 8,-4 10,-4 19,-3 28,1 6,3 7,9 14,9 1,-2 2,-4 3,-5 8,-9 15,-14 28,-14 7,0 9,2 14,3 -5,-6 -33,-10 -47,10 -7,-5 -11,-14 -32,-13 -6,1 -15,5 -18,5l-9 -2c-15,-1 -28,11 -33,24 -2,6 -3,33 -3,41 -5,-3 -10,-6 -17,-7 -12,-2 -26,0 -34,10 -3,4 -6,11 -6,17 -4,0 -7,-3 -12,-3 -11,0 -20,9 -23,20 -10,-1 -12,-3 -23,5 -5,3 -12,10 -15,15 -2,-1 -5,-3 -7,-4 -6,-5 -10,-9 6,-14 8,-3 19,-6 27,-12 10,-9 8,-11 23,-16 7,-2 14,-4 19,-10 2,-3 2,-4 5,-6 3,-2 10,-4 15,-5 7,-1 18,-2 26,-2 4,0 6,0 9,-2 4,-2 5,-8 5,-15 -1,-7 -2,-9 -7,-13 -6,-6 -13,-13 -22,-17 -13,-6 -17,-4 -35,-4l0 2c-3,0 -4,1 -7,2 -46,12 -57,8 -104,0 -6,-1 -10,-2 -16,-2 -20,0 -48,12 -64,3 -10,-5 -20,-3 -33,-2 -4,0 -12,1 -16,2 -6,1 -9,3 -10,9 2,2 7,6 9,9 3,3 8,5 10,9 -2,-1 -25,-17 -29,-19 -11,-8 -35,-18 -49,-16 -6,0 -7,3 -7,8 -3,0 -6,-2 -9,-4 -18,-7 -36,-14 -54,-19 -16,-4 -34,1 -51,3 -14,3 -45,8 -60,12 -2,0 -4,0 -6,1 -2,0 -7,2 -9,2zm-87 -155c2,-4 15,-13 23,-13 6,0 14,3 17,6 2,2 2,6 3,8 6,9 16,2 21,-2 11,-8 29,-3 34,6 2,4 5,7 9,2l3 -5c1,0 1,-1 1,-1l2 -1c0,-1 0,-1 0,-1 8,-7 20,-8 30,-5 4,2 22,16 0,29 -13,9 -44,13 -61,13 -12,0 -23,-2 -27,-10 -15,3 -29,3 -43,0 -1,0 -2,-1 -3,-1 -5,2 -4,6 3,5 7,0 19,3 33,1 11,-1 5,-1 12,3 18,11 71,3 87,-7 13,-7 19,-20 7,-31 -1,-2 -3,-4 -5,-4 -13,-8 -38,-1 -42,14 -3,0 -3,-2 -5,-5 -8,-10 -26,-12 -36,-5 -3,2 -10,8 -15,5 -4,-2 0,-8 -8,-12 -10,-6 -20,-7 -31,-1 -4,2 -8,7 -12,8 0,0 0,0 -1,1 -5,5 4,3 4,3zm-15 -40c2,-1 2,-1 3,-2 12,-7 26,-9 40,-13 5,-1 10,-4 15,-4 -2,2 -4,3 -5,7 -1,11 4,23 16,22 10,0 11,-3 18,-7 3,-1 7,-2 9,-3 3,-2 4,-5 6,-7 3,2 5,5 8,7 2,2 5,4 9,4 4,1 10,1 11,-2 2,-3 -1,-7 -2,-10 5,2 11,3 16,6l3 2c1,1 1,1 4,2 4,0 7,0 11,0 7,0 12,-4 19,-2 15,4 11,-15 18,-24 5,-8 21,-10 29,-15 15,-9 0,-27 40,-27 14,0 28,3 43,1 15,-1 29,-11 42,-18 2,-1 2,-1 4,-2 3,-1 4,-2 7,-4 2,-2 3,-4 7,-5 0,4 0,5 -1,8 -1,2 -2,2 -2,6 13,6 19,-9 31,-10 4,-1 8,-1 14,-1 -5,3 -13,4 -19,8 -8,5 -3,6 -23,11 -7,1 -29,7 -36,9 -3,2 -8,2 -9,7 2,1 2,1 4,2l16 3c10,2 16,1 22,-2 10,-4 28,-11 38,-14 10,-3 12,-3 20,1 10,4 8,4 18,-2 5,-3 10,-6 16,-9 5,-3 11,-7 17,-8 -1,1 -5,3 -7,5 -5,4 -18,13 -17,21 2,11 18,10 28,7 4,-1 5,-3 8,-5 5,-2 12,-6 19,-6 11,0 16,5 22,1 3,-2 6,-6 9,-9 0,0 0,0 0,0l4 -3 20 -6c-1,2 -4,3 -6,4l-8 6c-5,7 -8,18 -1,24 3,4 9,3 15,4 18,3 20,0 37,-7l13 -6c3,-1 5,-3 7,-3 -1,2 -3,4 -5,6l-7 5c-1,1 -1,2 -3,3l-7 5c-2,1 -2,1 -4,2l0 3c10,3 16,2 19,3 5,2 10,4 15,6 12,4 14,2 19,-15 0,-2 0,-3 2,-4 0,5 1,9 2,13 3,10 15,7 23,7 7,0 9,-1 13,-3l0 -4c9,11 9,18 28,13 3,-1 5,-1 6,-3 2,-4 0,-10 -1,-15 3,2 6,5 9,8 2,2 7,5 9,6 7,3 27,-2 35,-3l23 -2c5,1 8,3 11,5 2,2 8,6 11,7 1,-1 2,-3 4,-5 6,-6 9,-6 19,-6 21,0 13,0 25,9 9,7 16,4 28,2 3,0 5,0 8,0 7,-1 6,-1 13,0 3,0 5,1 8,1 1,1 3,1 4,0 0,-2 0,-2 -3,-3 -10,-2 -13,-3 -23,-2 -4,1 -6,1 -9,1 -15,2 -18,5 -29,-6 -9,-9 -15,-5 -23,-5 -9,-1 -9,-2 -17,4 -3,2 -4,4 -7,5 -17,-11 -14,-10 -35,-9 -13,0 -25,5 -38,5 -5,0 -14,-9 -18,-12 -1,-1 -1,-1 -2,-2 -3,-3 -5,-6 -8,-5 0,3 1,6 2,9 3,12 3,11 -5,13 -4,1 -10,2 -14,-1 -8,-8 -17,-25 -23,-35 -1,-1 -1,-1 -1,-2 -1,-1 -1,0 -1,-1 0,5 2,12 3,17 2,6 7,14 7,14l-9 1c-18,2 -19,1 -22,-16l-2 -26c-1,0 -1,1 -1,1l-2 9c0,4 -1,9 -2,13 -1,5 -3,11 -5,16 -1,3 -2,3 -3,5 -6,-2 -11,-3 -17,-6 -8,-3 -9,-4 -20,-4 1,0 2,-1 2,-1 2,-1 2,-1 3,-2 8,-7 15,-13 22,-21 2,-1 8,-7 8,-9 -2,1 -5,2 -7,3l-15 7c-2,1 -4,2 -7,3 -5,2 -9,5 -14,7 -17,7 -16,6 -34,3 -8,-1 -11,-3 -11,-10 0,-3 2,-6 3,-8 1,-3 3,-4 5,-6 12,-8 22,-12 36,-18 2,-1 5,-2 7,-3 0,-2 0,-2 0,-3 -14,3 -35,11 -49,15 -5,1 -6,1 -10,3 -3,3 -10,12 -14,12 -10,0 -18,-7 -36,3 -10,6 -11,7 -24,7 -4,0 -8,-2 -8,-6 0,-9 27,-26 37,-31 2,-1 5,-3 6,-4 -14,0 -25,6 -35,11l-30 18c-5,0 -11,-8 -19,-7 -10,1 -39,12 -49,17 -15,6 -22,-1 -34,-1l2 -2c5,-2 16,-5 22,-6 10,-2 31,-7 37,-13 3,-4 32,-15 35,-15l0 -1c-23,0 -30,-4 -44,7 -4,3 -6,5 -13,5 1,-3 3,-6 3,-9 0,-8 -5,-8 -10,-4 -6,5 -5,4 -12,8 -3,2 -6,4 -9,5 -9,5 -18,10 -28,13 -20,5 -44,-5 -66,1 -11,3 -15,9 -18,19 -2,5 -5,7 -10,9 -23,10 -26,6 -32,30 -1,2 -1,2 -1,4 -1,2 -1,1 -2,3 -5,0 -6,-1 -10,-1 -6,0 -8,2 -13,2 -4,0 -11,1 -14,0 -2,-2 -4,-4 -8,-5 -5,-3 -11,-5 -17,-4 -1,5 2,7 2,10 0,6 -12,0 -14,-1 -4,-3 -7,-8 -11,-10 -2,1 -4,5 -5,7 -3,3 -10,3 -17,9 -3,2 -8,3 -13,3 -8,0 -9,-9 -10,-16 -1,-3 1,-5 3,-7 2,-3 6,-4 9,-6 5,-2 10,-3 13,-5 0,-1 0,-1 0,-3 -4,0 -8,2 -11,3l-53 15c-7,3 -13,5 -19,9 0,0 1,1 1,3zm-35 -123l1 12 7 -2c17,2 21,6 45,-1l19 -5c4,-1 5,-3 8,-5 3,-1 6,-3 8,-5 -5,1 -9,3 -13,4 -16,3 -40,4 -57,4 -4,0 -4,-1 -8,-1 -4,0 -5,-1 -10,-1zm-1 -58l23 -11c11,-5 29,-14 41,-16 15,-3 24,4 41,-2 23,-7 44,-17 66,-26 7,-3 15,2 21,6 4,3 10,1 15,0 9,-2 17,-5 26,-8 8,-2 9,0 16,4l14 9c2,1 2,1 3,2 2,1 2,2 4,3l6 4c12,8 24,15 35,23 9,8 20,10 32,14 3,1 6,2 9,2 10,2 18,5 28,7l28 5c4,1 7,1 10,2 8,2 17,3 25,5 21,5 43,13 63,23 6,3 25,12 28,17 -2,-1 -5,-3 -7,-5 -19,-11 -55,-24 -77,-31 -1,-1 -8,-3 -8,0 0,3 4,5 6,6 9,6 20,15 25,24 -2,1 -1,0 -2,2 -11,0 -13,2 -25,-3 -20,-8 -29,-6 -38,-7 -6,-1 -13,-9 -20,-10 -2,-1 -3,0 -6,0 -2,1 -5,0 -8,0 -10,1 -14,3 -23,-5 -5,-5 -13,-6 -21,-9 -11,-4 -22,-7 -32,-12 -4,-2 -8,-3 -12,-4 3,-5 10,-11 -15,-15 -10,-2 -14,-1 -21,4 -3,2 -4,1 -8,0 0,-8 10,-10 10,-17 -3,-2 -5,-1 -8,1 -3,1 -5,3 -7,5 -5,4 -10,6 -17,5 1,-7 2,-9 -1,-14 -6,-8 -14,8 -23,5 -10,-3 -12,-9 -25,-7 -7,1 -8,0 -16,2 -6,2 -22,10 -27,15 -2,1 -2,3 -2,5 -1,5 -1,3 -3,6 -7,9 -4,4 -16,10 -14,6 -14,2 -19,14 -5,12 -11,7 -24,9 -4,1 -11,2 -16,2 3,-4 20,-11 23,-15 -1,-1 -1,-1 -1,-3 -8,1 -16,7 -23,3 1,-4 5,-4 8,-6 10,-3 19,-9 28,-14 8,-5 16,-10 24,-16 2,-2 6,-4 8,-7 -6,2 -19,8 -26,11 -17,7 -37,14 -56,17 -11,2 -20,5 -32,5 0,-2 -3,1 -4,1 0,6 2,5 5,2 19,0 47,-7 66,-13l19 -7c-1,2 -10,6 -13,8l-15 8c-4,2 -9,3 -13,5l-2 3c-2,3 0,6 3,7 4,2 6,0 10,0l-9 6c-2,1 -9,5 -6,8 2,1 38,-2 43,-4 4,-2 5,-5 6,-9 1,-2 2,-4 3,-5 1,-3 1,-2 5,-3 5,-1 12,-5 17,-7 6,-2 5,-1 9,-7 1,-1 3,-3 4,-4 3,-7 -6,-6 15,-16 3,-2 7,-4 11,-5 5,-2 9,-2 13,-2 6,0 6,-2 13,0 4,1 7,4 11,5 12,6 14,-4 23,-5 4,3 2,8 1,13 6,4 11,4 17,0 5,-2 9,-6 14,-9 -1,5 -9,6 -9,16 16,8 11,-3 22,-3 7,-1 22,1 26,6 -1,3 -3,3 -4,6 2,5 8,4 13,6 5,3 5,4 13,6 9,4 19,6 28,10 7,2 8,1 13,6 9,9 16,6 30,6 13,-1 11,0 21,6 11,5 13,2 24,4 6,2 10,2 15,4 10,4 22,8 32,5 16,-5 -15,-26 -18,-30 7,1 14,5 21,7 13,5 27,10 40,16 4,3 9,5 14,8 1,1 2,2 4,2 -1,2 -7,3 -9,4 -10,4 -19,8 -30,9 -11,0 -51,0 -60,-4 -6,-3 0,-12 -15,-9l-11 3c-5,2 -4,2 -8,-1 -2,-1 -6,-3 -9,-3 -5,1 -5,4 -10,3 -7,-2 -6,0 -11,0 -2,-2 -4,-6 -6,-7 -4,-1 -3,1 -12,-1l-85 -26c-8,-2 -14,-4 -22,-6 -7,-3 -14,-4 -21,-7 -6,-2 -15,-5 -22,-6 -22,-3 -41,7 -59,15 -6,3 -7,9 -20,16 -6,3 -15,4 -22,5 -17,3 -19,16 -34,22 -5,3 -13,8 -14,14 1,1 2,2 4,3 -3,10 -8,18 -1,29 6,0 7,-3 9,-6 4,-4 8,-9 11,-14 5,-9 11,-16 20,-22 13,-8 32,-6 43,-17 2,-3 8,-9 11,-10 -3,4 -8,11 -13,13 -9,6 -24,8 -35,16 -6,4 -16,16 -13,24 2,6 14,5 19,1l4 -5c0,0 0,0 0,0l2 -2c3,-2 5,-4 7,-5 6,-5 13,-9 20,-12 2,-1 2,-2 6,-2 2,13 16,11 22,2 2,-3 5,-9 8,-11 2,-2 10,-6 13,-6 -1,3 -4,2 -8,19 0,1 -1,3 0,5 2,2 2,0 2,1 0,0 1,0 1,0 5,1 6,-2 10,-1 8,0 10,-2 14,-7 3,-4 5,-5 8,-7 2,-2 2,-3 4,-4l-8 14c-1,3 1,4 4,4 10,0 18,-2 21,-9 1,-4 2,-9 5,-10 5,-1 10,4 12,-2 5,-15 4,-11 17,-8 0,6 -4,6 -3,11 0,4 6,3 10,5 1,1 2,3 5,2 1,0 3,-2 5,-3 6,-2 2,0 10,-5 1,-1 3,-2 4,-2 5,-1 17,10 29,10 3,0 4,-1 6,1 3,1 3,1 7,1 1,-4 -1,-5 -7,-9 -2,-1 -2,-1 -3,-3 5,0 10,0 15,1 5,0 8,-3 13,-3 6,12 7,5 17,7 8,1 4,0 10,-2 4,-1 8,2 9,4 -3,0 -9,3 -11,5 -2,1 -4,1 -6,2 -10,5 -19,8 -30,12 -33,11 -32,6 -54,-2 -16,-6 -8,0 -29,-4 -11,-2 -18,-5 -28,2 -7,5 -8,11 -19,15 -8,3 -21,4 -28,0 -14,-7 -13,3 -18,11 -1,3 -6,7 -9,8 -2,0 -13,-2 -15,-3 -7,-1 -18,-12 -24,-6 -4,4 -3,8 -6,11 -8,8 -15,-3 -22,-6 -20,-7 -14,17 -36,30l-26 16c-2,1 -3,2 -6,3 0,-1 -4,0 -4,1 3,3 6,4 5,2 2,0 6,-3 9,-4 3,-2 5,-3 8,-5 3,-2 6,-3 9,-5 1,-1 2,-2 4,-3 2,-1 3,-2 4,-3 7,-5 12,-9 16,-17 5,-9 5,-12 11,-12 4,0 8,2 11,4 7,6 14,8 20,0 7,-9 0,-16 22,-4 3,2 13,4 17,4 9,2 15,-7 18,-14 1,-2 2,-7 5,-7 3,0 8,5 14,5 9,0 20,-1 28,-6 6,-3 8,-7 13,-11 5,-4 10,-5 18,-4 26,5 22,2 28,2 4,1 11,4 15,5 7,4 11,7 22,7 14,0 37,-9 51,-15 65,-31 46,-14 56,-10 4,2 8,3 13,4 13,1 28,2 42,2 12,0 19,-2 27,-6 7,-2 12,-5 18,-6 4,-1 36,0 39,0l29 3c4,0 4,-1 6,-4 16,-18 29,-2 53,-11 3,-1 7,-2 10,-4 11,-4 10,-4 18,-10 9,-7 6,6 17,6 3,0 5,0 8,0 2,0 3,1 6,1 5,0 8,1 13,1 7,0 19,3 24,5 3,2 5,4 6,8 6,12 11,8 25,10 2,0 5,1 7,1 0,3 -1,3 -1,6 0,2 1,7 2,8 2,1 6,3 8,3 23,7 14,-7 35,14 3,3 5,5 8,7 15,13 17,8 33,10 5,1 9,1 14,1 4,1 9,2 13,2 9,1 12,-1 19,-8 6,-6 9,-11 18,-12 10,-1 16,-5 23,-13 1,-2 2,-2 3,-4 3,-3 7,-5 12,-5 -1,-2 1,-3 -8,-1 -6,1 -8,7 -16,14 -13,11 -15,-1 -30,14 -18,18 -15,11 -44,9 -5,-1 -9,-1 -14,-1 -11,0 -16,-5 -23,-11 -8,-6 -14,-16 -23,-18 -4,0 -8,2 -13,1 -5,-1 -8,-3 -12,-4 0,-3 -1,-4 -1,-6 0,-2 0,-5 0,-8 -4,-2 -7,-3 -13,-3 -4,0 -12,0 -15,-2 -1,-1 -2,-3 -3,-5 -4,-7 -4,-9 -13,-12 -21,-5 -28,-3 -44,-5 -2,0 -6,-1 -7,-1 -3,-2 -6,-12 -15,-6 -8,5 -2,4 -16,10 -32,14 -26,5 -49,6 -9,1 -16,8 -20,14 -21,-2 -25,-4 -48,-4 -10,0 -6,0 -18,-8 -5,-4 -11,-7 -16,-10 2,-3 11,-9 15,-12 12,-8 42,-22 56,-22l-5 3c-2,1 -3,2 -5,3 -10,6 -25,14 -26,25 3,0 3,0 5,-1 1,-1 2,-1 4,-2 4,-1 7,0 10,1 7,-5 26,-18 35,-18 -1,3 -13,10 -17,14 -3,2 -4,3 -3,7 2,7 0,6 13,3 5,-1 10,-4 14,-7 3,-1 5,-2 7,-4 7,-4 20,-10 28,-14 5,-2 19,-8 23,-9 -1,2 -13,6 -15,8 -11,4 -22,10 -31,16 -2,2 -4,3 -7,5 -3,3 -5,4 -6,6 6,1 10,2 18,2 7,0 14,1 21,0 24,-4 29,-16 39,-22 2,-1 14,-3 17,-2 3,1 2,3 6,4 9,3 16,-6 26,-1 6,2 10,8 11,9 8,3 12,-6 13,-7 5,-4 9,0 11,7 3,9 2,13 13,17 8,2 10,1 13,8 1,3 0,6 2,8 3,4 10,4 16,3 3,-1 12,-5 15,-5 0,2 -1,4 -2,6 -1,3 -1,3 -1,8 7,4 8,3 17,-3 3,-1 4,-2 7,-2 6,10 -4,13 0,16 2,1 5,-1 6,-2 3,-1 6,-3 9,-5 3,-1 7,-4 10,-4 2,4 4,8 9,11 5,3 20,-9 25,-13 3,-1 11,-7 13,-8 -2,3 -5,5 -8,8 -26,25 -2,31 18,14 18,-14 22,-12 28,-17 5,-3 4,-8 7,-15l2 -4c1,-1 7,-7 9,-7 2,-1 3,-1 3,-2 0,-1 0,-2 0,-2 0,-1 -1,-2 -2,-1l-4 2c-4,3 -9,6 -11,12 -2,4 -2,8 -4,12 -2,5 -14,8 -19,11 -11,7 -20,20 -34,17 0,-5 0,-5 2,-8 4,-7 10,-12 15,-17 2,-1 2,-1 3,-2l18 -14c1,-1 2,-1 2,-3 -7,3 -11,4 -20,9 -13,7 -24,16 -36,23 -4,2 -6,2 -9,-1 -6,-8 -1,-13 -17,-5l-10 6c1,-5 2,-9 -2,-13 -2,-1 -5,-1 -7,-1 -6,2 -9,7 -16,7 0,-7 3,-8 3,-14 0,-9 -27,10 -33,0 -1,-1 1,-9 -5,-13 -3,-3 -11,-3 -15,-5 -5,-3 -5,-8 -6,-14 -3,-10 -14,-13 -19,-6 -3,5 -1,3 -8,5 -1,-2 0,-2 -2,-4 -8,-5 -8,-7 -19,-7 -8,0 -11,8 -18,0 -5,-5 -21,-1 -25,2 -10,7 -14,14 -28,18 -10,3 -28,4 -39,2 16,-14 46,-27 66,-34 3,-1 8,-3 11,-3 -1,-2 -3,-2 -7,-2 -17,0 -29,6 -44,12 -14,7 -29,14 -42,23 -3,1 -9,3 -14,3 0,-3 0,-1 0,-4 0,-2 22,-15 22,-20 0,-8 -24,5 -25,6l-14 9c-4,2 -3,0 -7,0 -2,0 -5,1 -8,1 1,-2 3,-3 5,-4 2,-2 3,-3 5,-4l35 -20c3,-1 2,0 3,-2 -12,0 -19,1 -29,3 -8,3 -16,5 -24,9 -14,7 -28,15 -40,25 -2,-1 -13,-7 -15,-7l0 -1c3,-1 8,-5 10,-6 26,-15 57,-20 85,-28 4,-1 8,-2 13,-3l12 -4c4,-1 8,-2 13,-3 4,-1 8,-3 12,-4 10,-3 27,-7 36,-12 7,-5 10,-9 17,-2 2,1 4,3 6,4 2,2 4,3 6,4 9,5 18,10 27,15 8,6 13,2 22,2 9,0 7,14 31,14 8,0 17,0 24,-1 6,0 9,1 15,-1 9,-2 13,-6 24,-6 9,0 18,-1 27,-3 5,0 9,-1 13,-2 5,-1 9,-1 13,-2 13,-2 15,-11 28,-2 9,6 23,15 33,20 7,3 16,4 23,8l3 0c1,-1 -2,-5 -2,-4 -14,-6 -10,1 -34,-14l-22 -14c-8,-5 -12,-5 -22,0 -7,3 -16,3 -26,5 -6,2 -20,4 -27,4 -6,1 -10,0 -15,1 -9,2 -15,7 -25,7 -11,0 -36,1 -43,-2 -6,-2 -10,-12 -19,-12 -9,0 -10,5 -20,-1 -12,-8 -28,-15 -38,-24 -9,-8 -17,1 -25,5 -3,1 -27,9 -29,8 -2,0 -4,-1 -5,-2 -1,0 -3,-1 -4,-1 -19,-8 -6,-7 -26,-13 -2,-1 -3,-1 -5,-2 -14,-4 -4,-5 -17,-14 -6,-5 -13,-9 -20,-12 -14,-6 -17,-6 -35,-2l-34 10c-5,1 -13,4 -19,4 -6,0 -10,-1 -16,-1 -19,0 -33,11 -52,17 -18,5 -42,4 -62,7l-25 5c-19,5 -12,4 -29,-7 -5,-3 -9,-6 -15,-10l-38 -24c-4,-3 -5,-2 -10,-1 -6,3 -12,4 -19,7 -5,1 -16,4 -20,2 -13,-7 -15,-11 -30,-4 -13,6 -58,26 -71,26 -20,0 -24,-4 -43,3 -6,3 -12,5 -18,8l-34 16c0,0 -1,0 -3,0 -4,2 1,8 5,3zm375 280l-1 -1 1 1zm-1 -1l0 0zm536 13c1,-3 1,-8 -8,-8 1,-3 5,-6 7,-8 3,-3 10,-12 13,-16 2,-4 2,-7 8,-7 1,1 3,1 4,-1 0,-1 2,-3 -2,-4 -7,0 -32,-9 -41,-11 -20,-5 -36,-12 -60,-17 -12,-2 -56,-12 -66,-12 0,-12 -1,-14 3,-17 20,-14 41,-17 62,-5 5,3 15,11 17,16l2 0c1,-4 22,-33 50,-20 14,6 7,11 7,16 5,-3 5,-7 17,-14 10,-6 20,-9 32,-6l3 1c0,-1 0,-4 -2,-4 -7,-3 -18,-1 -25,2 -9,3 -13,7 -20,11 -3,-6 -7,-9 -13,-11 -19,-5 -31,0 -44,12 -2,2 -5,5 -6,7 -3,-2 -6,-5 -9,-8 -19,-15 -43,-17 -65,-5 -2,1 -3,2 -5,3 -4,2 -9,-2 -20,-4 -13,-4 -17,-4 -29,-5 -10,-2 -23,0 -34,-2 -6,-1 -15,0 -21,-3l-12 -6c-28,-11 -47,-13 -77,-18 -12,-1 -36,-2 -49,-2l-17 1c-10,0 -11,-4 -24,-10 -20,-10 -42,-10 -60,3 -9,6 -3,5 -19,2 -19,-4 -65,-15 -86,-17 -8,0 -32,-7 -37,11 -1,3 0,4 -2,6l-9 17 -9 26c-3,11 -3,7 -10,15l-14 12c-2,2 -2,2 -4,4 -2,2 -3,2 -5,4 -6,5 -12,10 -19,15 -1,2 -2,3 -4,5 -13,11 -25,23 -37,35l-14 15c-3,3 -12,11 -12,14 -1,3 0,6 1,7 2,3 2,3 6,3 11,1 29,3 40,-2 3,-1 3,-2 6,-1 3,1 6,6 6,10 6,0 8,-1 14,0 14,3 15,14 30,17 12,3 4,2 14,9 2,1 3,2 5,2 3,1 4,1 7,1 3,1 3,1 5,3 5,6 19,10 15,-3 -1,-7 -5,-15 -9,-21 -10,-12 -23,-19 -38,-24 -3,-1 -10,-3 -13,-3 1,-6 2,-8 9,-8 3,0 5,0 7,1 3,1 3,3 5,5 1,1 3,3 4,4 3,1 3,1 7,1 9,0 4,-6 12,-6l2 8c1,3 1,5 2,7 2,5 5,10 8,13 4,4 6,5 11,8 11,5 21,-4 24,-14 0,-3 0,-5 0,-8 1,-5 2,-5 3,-8 3,-6 3,-8 3,-16 0,-5 2,-4 4,-7 1,-2 2,-5 4,-6 3,7 4,7 9,13 1,2 1,3 1,6 2,7 8,14 15,16 -3,5 -6,21 8,22 0,4 0,8 1,12 2,6 6,8 11,12 3,3 1,10 9,13 3,2 7,2 11,4 8,4 17,4 25,2 5,-2 7,-4 11,-5 -3,-5 -5,-8 -7,-13 -1,-3 -2,-5 -3,-8 0,-3 -1,-5 -2,-8 5,1 5,2 10,1 3,-1 8,-2 10,-2 13,3 10,-2 19,-3 9,-1 12,-1 17,-6 3,-2 7,-1 11,-2 4,0 7,0 10,-1 2,1 4,3 7,5 23,17 24,2 47,19 2,2 4,3 5,6 3,-1 6,-5 11,-7 4,-2 11,-2 16,-1 7,3 12,6 17,10 2,2 3,3 5,5 6,-2 12,-5 18,-5 12,-2 22,0 32,3 11,4 6,3 13,11 10,9 25,0 32,-7 4,-5 3,-2 9,-4 6,-2 8,-8 6,-16 -2,-8 8,-8 14,-8 1,-5 2,-8 6,-10 9,-5 12,-2 20,-2 3,0 4,-1 7,-2 16,-7 8,11 37,2 2,-1 4,-2 6,-3 6,-3 6,-1 13,0l33 7c5,1 9,8 19,2 6,-3 4,-11 8,-16 2,-2 8,-2 11,-5 6,-6 4,-10 10,-17 0,0 0,0 0,0 2,-2 3,-3 3,-4zm-94 127c0,-14 -11,-19 -23,-14 -1,0 -3,1 -4,2 -3,-2 -6,-9 -18,-9 -6,0 -16,5 -17,9 5,-1 12,-5 19,-2 13,5 7,18 20,9 5,-3 12,-7 16,-2 4,3 5,9 7,7zm-441 -139c2,0 20,11 24,14 9,4 18,8 27,11 5,2 10,4 15,5 11,3 21,5 32,6 6,1 13,2 19,2 -2,-3 -8,-2 -10,-3 -35,-8 -64,-18 -94,-38 -12,-7 -23,-15 -33,-24 -2,-2 -3,-2 -7,-2 -4,6 2,9 6,16 6,9 14,17 20,25 2,1 3,2 4,3 6,8 19,21 26,26 3,2 5,4 7,6l8 6c7,5 4,7 8,18l7 19c-3,0 0,0 -2,1 -2,0 -2,1 -4,1 -7,2 -15,2 -21,-1l-6 -2c-5,-3 -12,0 -12,-14 -5,-2 -9,-5 -12,-9 -4,-9 -1,-10 -1,-18 -17,4 -9,-12 -9,-19 -4,-3 -8,-5 -11,-9 -7,-9 0,-8 -6,-14 -3,-3 -7,-8 -8,-13 -2,-4 -1,-8 -4,-11 -1,-1 -1,-2 -3,-2 1,9 5,11 -5,22 -6,6 1,12 -6,24 -2,2 -3,2 -2,5 0,4 0,3 0,7 -5,22 -26,16 -34,0 -4,-8 -4,-20 -10,-22 -5,-2 -7,4 -10,5 -7,4 -11,-6 -14,-8 -5,-3 -15,-3 -20,0 -3,2 -3,6 -3,12 11,0 22,5 31,10 14,6 24,19 28,33 5,17 -11,-1 -13,-1 -3,-1 -6,0 -9,-1 -5,-2 -9,-6 -12,-10 -6,0 -14,-2 -19,-6 -6,-7 -11,-11 -22,-13 -4,0 -3,1 -8,1 -2,-4 -3,-8 -7,-10 -5,-2 -6,-1 -10,1 -4,3 -39,4 -41,0 -3,-4 2,-8 5,-11 2,-2 2,-3 4,-5l15 -14c0,0 0,0 0,0l33 -33c7,-7 16,-13 23,-20l9 -8c6,-5 13,-10 19,-16 9,-9 7,-3 10,-15 3,-8 6,-17 9,-25 1,-2 2,-4 3,-7 2,-3 4,-7 6,-11 4,-5 2,-12 10,-15 10,-5 42,2 54,4l50 11c2,0 5,1 7,1 3,1 13,4 15,4l7 -6c14,-10 35,-12 51,-5 3,1 6,2 9,4 8,4 12,9 17,8l13 0c38,0 58,1 96,8 17,3 33,9 48,16 15,8 42,4 59,6 11,1 22,4 32,6 4,1 7,3 10,4 -1,1 -1,1 -1,4l0 18c4,0 7,0 11,1l69 13c26,7 58,18 83,24 -1,2 -2,0 -4,4l-12 17c-10,12 -20,15 -21,16 8,0 13,-1 19,2 0,3 0,2 -2,4 -1,1 -1,2 -2,3 -7,7 -4,18 -18,18 -2,3 -5,7 -6,12 -1,3 -2,5 -6,6 -5,2 -6,0 -9,-3 -2,-1 -41,-9 -47,-9 -3,0 -12,5 -19,6 -15,2 -10,-3 -19,-5 -7,-3 -11,4 -20,3 -3,-1 -8,0 -11,0 -12,3 -11,9 -14,12 -3,2 -14,0 -15,9 -1,5 5,15 -6,16 -6,1 -4,0 -8,5 -6,5 -17,13 -25,7 -7,-5 -1,-7 -13,-11 -16,-6 -37,-8 -53,0 -4,-5 -16,-13 -22,-14 -13,-4 -18,0 -27,6 -5,-7 -21,-14 -30,-14 -7,0 -11,-2 -16,-6 -5,-3 -9,-7 -13,-9 -2,0 -2,1 -5,1 -5,1 -14,0 -18,2 -1,1 -2,2 -3,3 -7,5 -12,2 -16,4 -2,1 -3,2 -5,3 -3,1 -7,2 -10,0 -2,-2 -2,-1 -4,0 -16,6 -16,-1 -22,-4 -3,-1 -9,-8 -12,-11 -6,-6 -13,-14 -19,-21l-15 -18c-1,-1 -2,-2 -2,-4zm348 -130l0 0zm-1 -1l0 0zm0 0l0 0zm-2 -2l0 0zm0 0l0 0zm-1 -2c0,0 0,0 0,0l0 0zm-119 -44c0,0 0,0 0,0l0 0c0,0 0,0 0,0zm-86 -6l-1 1 1 -1zm0 0l0 0zm413 -20l0 0zm-707 -7l0 0zm314 -5c2,0 4,2 5,3 -4,0 -2,0 -3,-1 0,0 -1,-2 -2,-2zm-499 4c-17,0 -22,-2 -29,-2l0 -3c4,0 4,1 7,1 2,0 4,0 7,0 3,0 4,0 6,0 3,1 3,0 7,0l20 -1c3,0 3,0 7,0 -2,1 -9,3 -11,3 -5,1 -10,2 -14,2zm154 -5l0 0zm-129 -1c1,0 4,0 2,0 -2,0 -3,1 -2,0zm-3 53c-7,-14 9,-27 -1,-29 3,-5 9,-8 15,-11 13,-6 13,-17 30,-21 4,0 8,-1 11,-1 10,-3 18,-7 25,-14 3,-3 3,-3 7,-6 3,-1 6,-3 9,-4 10,-5 26,-11 41,-11 12,0 28,7 40,10 7,2 13,4 19,6 4,1 7,2 10,3l77 23c2,1 3,1 5,1l4 2c-7,0 -16,0 -23,0 -6,0 -2,2 -2,2 1,1 9,5 11,7 -18,0 -26,-10 -31,-10 -4,0 -9,3 -11,5l-11 6c-2,-2 -3,-4 -11,-4 0,-6 4,-5 4,-10 0,-5 -9,-7 -15,-7 -6,0 -8,7 -9,13 -8,0 -12,-4 -17,9 -2,8 -5,9 -17,9 1,-3 5,-9 7,-12 2,-3 6,-8 5,-12 -5,0 -6,3 -11,7 -1,2 -3,3 -4,4 -2,2 -3,2 -5,4 -2,2 -6,7 -9,9 -2,1 -5,0 -8,0 -3,1 -4,2 -8,2 0,-4 4,-14 5,-16 4,-6 11,-9 11,-12 0,-6 -26,9 -26,9 -5,4 -10,18 -17,18 -9,0 -5,-9 -13,-9 -6,0 -20,10 -24,13 -7,4 -5,2 -10,8 -11,11 -11,7 -19,7 0,-10 6,-18 15,-23 7,-4 17,-8 25,-10 10,-4 13,-8 19,-16 2,-3 5,-6 7,-10 1,-2 2,-3 3,-5 1,-2 2,-4 3,-6 -4,2 -6,5 -10,8 -5,5 -9,7 -15,13l-3 3c0,0 0,0 0,0 -11,11 -26,6 -45,20l-12 11c-5,5 -13,23 -21,27zm550 -89l0 0zm65 -10c1,0 -1,0 2,0 0,0 1,0 -2,0zm3 -1c0,0 0,0 0,0l0 0zm-86 0l2 -1 -2 1zm-15 -9c0,0 2,1 1,1 0,0 -2,0 -1,-1zm4 0c-1,0 1,0 -2,0 1,0 -1,0 2,0zm-491 -8l2 -1 -2 1zm327 -1l0 0zm8 -4l0 0c0,0 0,0 0,0zm1 -1l0 0c0,0 0,0 0,0zm1 -1c1,0 3,1 1,1 0,0 -2,0 -1,-1zm-10 6c-1,1 -2,2 -3,4 0,1 1,3 2,4 7,5 29,11 41,9 12,-1 11,-9 18,-7 7,2 2,19 25,11 1,0 2,-1 4,-1 2,-1 2,-1 5,0 6,2 28,1 35,-3l8 -5c4,-2 6,-1 7,-6 6,0 12,2 17,4 0,0 0,1 0,1 -7,0 -41,10 -49,14 -11,5 -17,8 -27,14 -4,2 -7,0 -15,-3 -2,-1 -2,-1 -4,-2l-28 -9c-5,-2 -10,-3 -16,-4 -21,-3 -35,-7 -54,-10 -12,-2 -60,-13 -65,-20 9,-2 18,-4 28,-6 12,-1 38,-7 47,5 -2,6 -17,11 -8,15 6,3 17,1 24,-2 3,-1 4,-2 8,-3zm12 -6c5,-4 18,-6 25,-6l0 1c-7,0 -23,5 -25,5zm152 15l5 -3c5,-2 12,-6 17,-7l0 -1c-2,-1 -3,-2 -5,-4 -2,-2 -3,-2 -5,-4l-7 -6c0,-1 -1,-1 -1,-2 -1,-1 -1,0 -1,-1 5,-2 9,0 16,-1 8,0 8,-1 16,1l20 8c2,0 5,2 7,2l-38 11c-5,2 -21,7 -24,7zm-2 -27l13 11c2,2 3,2 4,4 -2,1 -3,2 -5,2 -4,2 -12,7 -16,7 -3,0 -8,-4 -14,-3 -5,0 -4,1 -5,3l-12 7c-7,5 -27,6 -36,3 -6,-2 -6,3 -17,4 -5,0 -6,-2 -7,-5 -3,-5 -6,-10 -14,-8 -6,2 -9,13 -37,4 -4,-1 -13,-4 -15,-7 4,-6 29,-11 38,-13l11 -2c3,0 1,1 3,-1 -7,-2 -6,-4 -18,-4 -12,0 -23,6 -32,10 -10,5 -17,9 -28,9 -3,0 -3,0 -5,-1 1,-4 9,-4 9,-12 0,-4 -4,-6 -7,-8 -2,-1 -2,0 -3,-2 41,0 51,-20 83,-20 17,0 5,4 32,-3 14,-4 41,-12 53,-14 8,0 31,13 37,18 3,3 3,3 5,7 2,4 5,5 10,6 1,1 1,1 2,1 0,0 1,0 1,0l1 1c-9,0 -6,2 -18,1 -5,-1 -12,0 -13,5z"/>
  <path class="fil1 str0" d="M983 1553l4 2c1,1 1,1 2,2l1 0c3,1 8,4 11,5 12,6 25,11 37,16 26,9 52,18 79,23 19,4 40,7 60,9l16 1c16,0 36,3 51,1 8,-2 17,-1 24,-2 13,-2 26,-2 39,-4 29,-5 57,-11 84,-20 13,-4 26,-8 39,-13 21,-7 42,-17 62,-28l36 -19 15 -11c16,-12 32,-24 48,-37l23 -20c0,0 0,-1 0,-1l13 -12c3,-3 6,-5 8,-9 9,-10 8,-8 14,-19 2,-3 5,-8 8,-10 17,-16 30,1 48,15l25 19c3,3 6,5 9,8 4,2 7,5 10,7 2,3 8,6 9,8 -13,0 -24,11 -30,17 -6,5 -9,12 -14,17 0,1 -1,1 -1,2 0,0 -1,0 -1,0l-19 20c-2,2 -4,4 -6,6l-3 3c-1,1 0,1 -1,1l-27 25c-3,2 -4,3 -7,5l-56 41c-3,2 -5,3 -7,5 -6,3 -10,6 -15,9 -5,3 -10,6 -16,9 -5,3 -10,6 -15,9 -11,5 -21,11 -32,16 -14,7 -27,14 -42,19 -3,1 -6,2 -9,3 -12,5 -24,8 -37,12 -5,2 -12,4 -19,5 -16,4 -53,13 -70,14l-33 4c-18,2 -52,3 -71,3 -8,0 -15,-1 -23,-1l-23 -1c-15,-2 -30,-3 -44,-5 -7,-1 -14,-2 -21,-4 -7,-1 -15,-2 -21,-4 -4,0 -6,-1 -10,-2 -3,0 -7,-1 -10,-2 -24,-6 -70,-19 -92,-29 -17,-7 -34,-14 -50,-23 -3,-1 -5,-2 -8,-4l-8 -4c-5,-3 -10,-6 -15,-9 -16,-8 -30,-18 -45,-28 -5,-4 -9,-7 -14,-10l-40 -33c-14,-12 -29,-24 -41,-37l-1 -1c0,0 0,0 -1,-1l-13 -14c-1,-1 -2,-2 -3,-3l-3 -3c-13,-13 -18,-28 -40,-33 0,0 2,-2 4,-3l64 -53c15,-11 31,-4 43,8 5,5 9,12 14,18l18 21c8,10 17,19 27,27 17,16 34,29 53,43 6,4 12,8 18,12 10,6 20,12 30,17 2,1 4,2 5,3 3,1 4,3 6,2zm-219 21c0,-9 -23,-25 -36,-13 -8,8 -6,23 -2,30 8,12 24,19 41,17 30,-5 44,-51 -11,-72 -26,-10 -39,-5 -64,-24 -23,-18 -19,-34 3,-49 1,-1 1,-2 3,-2 6,-4 21,7 25,12 3,4 5,6 8,10 6,8 12,14 18,21l10 12c0,0 0,0 1,0 0,0 0,0 0,1 0,0 0,0 0,0 0,0 0,0 0,0l28 27c0,1 0,1 0,1 0,0 1,0 1,0 0,1 0,1 1,1 1,1 2,2 3,3l26 23c19,17 62,47 85,60l52 27c21,10 42,19 64,25 10,3 20,7 30,10l15 4c17,4 31,8 49,11l51 7 37 3c6,1 13,-1 19,0 9,2 61,0 76,-2l17 -2c9,-1 18,-2 26,-4l73 -16c2,0 5,-1 8,-2 17,-5 34,-11 51,-18 5,-1 10,-3 14,-5 9,-5 18,-8 26,-13l10 -5c9,-5 19,-10 28,-16l25 -14c21,-13 59,-41 76,-56l33 -30c2,-2 3,-4 5,-6 2,-1 3,-3 5,-5 2,-2 2,-3 5,-5l22 -26c1,-2 2,-4 4,-5 1,-2 3,-4 4,-6 2,-2 3,-3 5,-5 5,-5 11,-9 18,-12 7,-2 10,0 15,3 19,16 19,33 -1,47 -28,21 -54,16 -83,36 -1,1 -1,0 -2,2 -2,1 -2,1 -3,2 -11,8 -14,22 -12,35 2,11 10,18 19,21 18,5 47,-6 50,-25 2,-13 1,-21 -13,-24 -9,-2 -24,6 -26,13 3,-1 3,-2 5,-4 1,-1 2,-2 3,-3 11,-9 28,-4 29,5 2,18 -7,28 -24,34 -5,1 -11,3 -16,2 -6,-1 -11,-3 -15,-6 -10,-7 -11,-27 -4,-36 1,-3 2,-4 4,-6l1 -1c13,-11 29,-17 47,-21 1,0 2,-1 4,-1 1,0 3,0 4,-1 20,-5 54,-21 54,-45 0,-7 -2,-11 -4,-15 -7,-13 -21,-19 -32,-28 -3,-3 -7,-6 -11,-9 -3,-3 -7,-6 -11,-9 -11,-9 -32,-27 -44,-35 -9,-6 -21,-7 -31,0 -1,1 -1,1 -2,2l-8 8c-2,4 -4,8 -7,12 -3,4 -6,7 -9,11l-15 15c-6,5 -12,11 -18,16 -1,1 -1,1 -2,2 -9,8 -18,16 -28,23l-16 12c-16,12 -32,23 -49,31l-40 20c-11,5 -23,10 -35,15l-29 10c-14,5 -33,10 -47,13l-25 5c-17,3 -45,8 -62,8 -6,0 -13,1 -19,1l-40 0c-14,0 -49,-4 -64,-6 -19,-4 -38,-7 -57,-13 -41,-13 -82,-28 -119,-50 -2,-1 -4,-2 -6,-3 -9,-5 -17,-11 -25,-16 -9,-6 -19,-14 -28,-20l-27 -23c-7,-5 -14,-14 -20,-20l-15 -16c0,0 0,0 0,0 -8,-9 -21,-28 -26,-32 -6,-4 -11,-8 -19,-11 -22,-9 -32,4 -47,16l-51 42c-12,11 -35,23 -30,44 2,10 10,18 17,23 8,6 16,11 26,14 17,6 29,5 47,13 13,6 26,15 28,31 4,25 -24,37 -44,28 -10,-5 -16,-9 -19,-21 -5,-20 13,-29 29,-18 4,3 7,6 9,9 1,1 1,1 1,2z"/>
  <path class="fil1 str0" d="M1233 1672c-3,0 -5,0 -7,-3 4,-1 5,-6 5,-11l0 -19 16 0c0,3 0,2 0,5 1,2 0,4 1,6 0,3 1,8 -1,11 -2,4 -9,11 -14,11zm-29 -18l0 2c-8,0 -15,-1 -22,-1 0,-7 1,-11 1,-17 10,0 20,1 31,1 0,11 2,17 -5,17 -2,0 -3,-4 -5,-5 0,1 0,1 0,3zm160 -7c0,-2 3,-5 5,-6 2,-1 4,-2 8,-2 0,2 2,9 3,11 -10,6 -16,2 -16,-3zm-247 -3c-8,-2 -16,-3 -24,-5 5,-9 -1,-15 7,-14l19 4c-2,3 -2,11 -2,15zm225 -41c0,3 3,8 7,8 7,0 1,-7 13,-1 3,1 5,2 7,3 -2,3 -24,6 -29,8 -41,9 -116,13 -159,8 -14,-1 -25,-1 -40,-4 -16,-2 -32,-5 -46,-9l-27 -7c-1,2 -2,5 -3,7l15 5c3,0 4,0 4,3 0,4 -1,8 -2,10 -5,-1 -2,-4 -9,-4 -5,0 -7,5 -7,9 0,7 5,17 8,22 1,3 3,8 5,9 2,2 10,3 13,3 -1,-4 -7,-17 -8,-27 5,0 5,-2 8,-4 2,3 5,10 7,11 1,1 15,3 16,3 0,5 0,7 0,12 4,2 13,11 16,12l2 -24c0,-3 1,-8 1,-12 1,-4 1,-8 1,-12l27 4c6,0 3,1 3,6l0 11c-4,0 -6,-2 -7,2 0,0 0,3 0,5 0,1 -1,2 -1,4 0,5 1,5 3,7 7,6 6,4 20,4l0 -7c2,0 29,2 30,3 2,1 15,17 34,7 5,-3 5,-7 5,3 6,1 15,7 20,7 -1,-14 -2,-27 -2,-41 0,-12 -5,-9 13,-10 5,-1 3,-1 4,13 1,3 2,8 2,12 -10,2 -9,18 5,18 6,0 13,-4 13,-10 0,-7 -1,-29 -3,-36 3,0 4,0 7,0l5 -1c4,0 2,5 4,15 1,2 1,6 1,8 3,17 1,13 10,17 3,2 11,5 14,6 -1,-4 -2,-9 -2,-12l-6 -38 19 -3c4,-1 6,-2 10,-3 3,0 7,-2 10,-2 0,5 2,8 2,13l-11 0c-17,0 -21,17 -12,25 8,6 18,4 25,0 2,-2 2,-2 4,-3 2,4 0,2 10,6l12 4 -9 -38c-1,-4 -3,-8 -3,-13 4,0 8,-2 13,-3l0 -8c-5,1 -8,2 -12,4 -16,4 -9,5 -24,-3 -7,-4 -9,-5 -15,-5 -3,0 -11,2 -11,3z"/>
  <path class="fil1 str1" d="M1177 696l14 5c-1,3 -2,4 -2,7 -2,-1 -12,-6 -14,-7 1,-2 2,-3 2,-5zm79 10l-1 -5c3,-2 9,-6 12,-6 0,3 0,2 2,4 -3,1 -7,4 -10,5 -2,1 -1,1 -3,2zm16 -9c-1,-1 -2,-2 -2,-4 2,-1 9,-4 11,-5 0,2 1,3 1,5 -3,1 -7,2 -10,4zm-115 -5c3,-1 2,0 2,-2l11 3c2,1 2,1 4,2 -1,3 -1,2 -3,4 -1,0 -12,-5 -14,-7zm129 -1c-1,-2 -1,-1 -1,-4 3,-1 5,-2 9,-2l1 3c-3,1 -7,2 -9,3zm-130 -3l-3 3c-2,-1 -3,-2 -5,-2 -7,-3 -5,-5 -1,-4 2,1 4,2 9,3zm146 -2c-3,0 -2,-1 -4,-1 0,-3 -1,-2 6,-3 2,-1 5,-2 8,-2 0,2 0,2 1,3 -2,0 -3,0 -5,1 -1,0 -6,2 -6,2zm-89 -15l0 -14c0,-4 0,-5 0,-9 2,1 6,7 16,4 0,12 -1,25 0,35 2,13 7,20 8,28 4,-2 9,-9 13,-10 0,3 1,3 1,5 -4,3 -8,7 -11,10 -4,6 1,6 1,16 0,14 -7,30 -13,39 -3,-2 -10,-17 -17,-19 1,-1 2,-2 4,-4 1,-2 2,-3 3,-5 4,-7 4,-11 4,-19 3,0 3,0 3,-3 -3,2 0,0 -2,2 -1,0 0,0 -1,0l-20 -12c-3,-2 -5,-2 -7,-4 0,-2 2,-4 2,-7 4,0 8,3 11,4 3,1 7,4 11,4 -1,-2 -1,-1 -2,-3 -4,-8 -4,-29 -4,-38zm-87 8l15 4c-1,3 0,3 -7,0 -3,-1 -6,-2 -8,-4zm193 2c-1,0 -2,-1 -3,-2 4,0 7,-1 11,-1 0,2 0,1 -3,2 -2,0 -3,1 -5,1zm-199 -4c3,0 2,-1 3,1 -2,0 -1,0 -3,-1zm211 1c1,-1 0,-1 3,-2 1,0 4,0 5,0l0 1c-3,0 -6,0 -8,1zm-212 -2c0,0 2,1 0,1 0,0 -2,0 0,-1zm178 53c-11,0 -19,0 -28,-7 -4,-3 -11,-10 -12,-15 3,-2 9,-6 13,-7l2 9c0,4 -1,6 1,9 3,4 9,7 14,6 0,0 0,-1 0,-1 0,1 0,0 0,0 -4,-1 -10,-2 -12,-8 -1,-4 1,-4 0,-12 -1,-3 -2,-2 -2,-5 2,0 8,-3 10,-4 0,2 1,4 1,6 0,5 -3,13 5,19 5,4 10,5 20,5l0 -1c-4,0 -11,-2 -13,-4 -13,-6 -7,-10 -8,-18 -1,-4 -1,-6 -2,-8 20,-9 17,1 18,10 2,16 17,10 20,5 -3,1 -17,10 -17,-8 0,-10 0,-7 -4,-13l13 -4c9,6 3,16 12,16 2,0 3,0 5,-1 2,-1 2,-1 3,-3 -13,6 -11,-5 -12,-8 -1,-3 -2,-3 -4,-5 3,0 4,-1 7,-1 2,0 3,2 4,3 3,3 9,5 14,5l0 -1c-5,-1 -12,-4 -13,-9 8,-1 16,-2 24,-4 -2,9 -15,28 -22,35l-2 2c0,1 -1,1 -1,1l-4 3c-5,5 -12,8 -18,10 -3,1 -9,3 -12,3zm-180 -53l0 0c0,0 0,0 0,0zm-2 -1l0 0c0,0 0,0 0,0zm-27 -8c7,2 15,6 19,7l0 1c-3,1 -6,3 -10,4l0 2c7,0 10,-3 14,-5 2,0 4,1 6,2 1,0 3,1 5,1 -1,4 -9,10 -13,12l-5 4c7,-1 20,-9 21,-14 3,0 12,5 15,6 -10,18 -23,14 -28,16 5,0 13,3 22,-4 5,-4 6,-5 9,-11 2,1 6,3 8,3 0,3 0,2 -2,4 -5,5 -4,9 -6,12 -2,5 -11,7 -18,7l0 0c4,0 17,3 22,-7 2,-5 3,-8 7,-12 1,0 1,-1 2,-1 3,1 9,5 13,6 0,3 -3,5 -3,8 -2,7 -3,12 -12,14 -4,1 -7,1 -12,1l0 1c7,0 15,3 24,-6 2,-2 2,-5 3,-8 1,-5 3,-5 4,-8 3,0 11,5 15,7 -2,7 -12,16 -21,20 -18,6 -39,-5 -51,-16 -9,-8 -13,-11 -17,-24 -3,-8 -6,-15 -11,-22zm207 -10c-5,1 -9,8 -11,12 -2,5 -3,11 -3,18 -4,1 -8,4 -12,4 0,-7 -2,-15 6,-25 1,-3 3,-4 5,-6 -10,2 -17,19 -14,33 -2,1 -9,5 -11,7 0,-4 -1,-6 -1,-10 0,-22 16,-36 37,-40 16,-3 53,7 64,24 -9,0 -15,1 -24,1 1,-7 5,-8 7,-11 -6,0 -10,6 -11,12 -2,0 -9,1 -12,2 0,-13 2,-10 7,-18 -6,1 -11,10 -11,19 -5,0 -9,2 -14,2 0,-10 4,-15 11,-20 2,-2 5,-2 7,-4 -5,0 -13,5 -15,8 -5,5 -6,8 -6,18 -1,0 -8,2 -10,2 0,-6 1,-11 3,-16 2,-6 5,-8 8,-12zm-154 25c-2,-1 -12,-4 -14,-4 0,-8 -2,-19 -10,-21 5,7 6,6 6,19 -4,-1 -7,-3 -10,-3 0,-6 0,-13 -7,-14 1,2 4,6 4,10 0,4 -2,3 -13,-1l-11 -4c-2,-1 -1,-1 -4,-2 3,-3 21,-8 26,-9 19,-5 41,-7 60,2 3,1 5,2 8,3 18,11 19,25 15,42 -2,-1 -10,-5 -13,-5 1,-5 2,-4 2,-14 0,-6 -1,-11 -3,-16 -1,-2 -1,-3 -2,-4 0,2 0,3 1,5 0,3 1,4 1,7 -5,-4 -9,-8 -13,-9 3,5 7,10 13,10 0,6 1,0 0,10 0,4 -1,6 -2,9 -3,0 -12,-4 -15,-5 2,-10 1,-18 -4,-27 -2,-3 -9,-9 -13,-9 4,3 11,7 12,14 -3,-1 -5,-2 -9,-2 3,5 7,6 11,5l0 12c0,4 0,3 0,6l-12 -4c0,-10 -1,-14 -5,-20 -3,-4 -9,-10 -15,-11 2,2 7,4 12,12 1,2 3,5 3,8 2,4 1,6 1,10zm85 -37l0 0zm-2 -1l0 0c0,0 0,0 0,0zm2 1c1,1 1,1 3,2 0,3 0,4 -3,5 -3,0 -12,-1 -13,-10 3,0 3,1 6,2 2,2 5,2 7,3 0,-1 0,0 0,-2zm-18 -10c1,1 2,2 3,3 2,2 1,1 1,5 -3,-1 -4,-3 -4,-8zm23 14l0 -1c-2,-4 -1,-2 -5,-5 -7,-3 -13,-5 -17,-10 -1,-2 -1,-2 -3,-3 1,2 1,3 2,5 -5,0 -12,-2 -14,-5 -3,-4 1,-2 -5,-5 -8,-5 -1,-11 -1,-13 7,0 12,-1 20,-1 3,0 6,0 9,0 4,-1 6,0 10,0 8,0 35,1 35,7 0,1 -1,1 -2,2 -4,5 1,10 -15,11 -5,1 -8,8 -11,12 -1,4 -2,3 -3,6zm53 -38c12,-2 29,-28 34,-39 1,-2 1,-3 2,-6 3,-12 12,-25 21,-34 1,-2 3,-3 4,-5 -8,0 -14,-3 -24,1 -2,1 -4,2 -6,3 -4,-14 -21,-7 -29,-2 0,-4 0,-5 0,-8 -6,-1 -12,-1 -18,2 -5,2 -9,5 -13,8 -7,-5 -9,-10 -20,-16 -5,3 -8,6 -12,9 -3,4 -7,8 -10,12 -6,-4 -6,-9 -16,-12 -8,-3 -16,4 -17,8 -3,-1 -4,-2 -7,-3 -8,-4 -16,-5 -24,-3l0 6c-6,-1 -9,-5 -21,-7 -9,-1 -15,-1 -26,-1 2,4 6,7 9,12 6,9 10,19 15,29 7,15 5,15 15,28 2,3 4,4 6,6 10,10 22,15 37,19 0,5 2,6 6,9 4,3 1,9 17,9 0,6 1,7 5,9 -1,17 -2,42 2,58 0,3 1,4 2,7 -5,-1 -13,-7 -18,-7 1,-7 10,-23 -5,-40 -13,-14 -37,-23 -57,-20 -4,1 -9,1 -12,1 -12,1 -44,10 -49,17 4,6 3,0 11,16 10,19 4,28 37,52 11,8 25,11 39,8 9,-1 13,-4 19,-8 3,-3 11,-12 12,-16 5,0 19,10 23,13 6,3 6,6 2,16 -3,10 -9,12 -11,17 -4,9 8,27 21,21 3,-1 4,-3 5,-6 18,-39 5,-47 8,-51 1,-3 4,-6 7,-8 1,-2 2,-3 4,-3 3,11 15,21 26,24 19,5 43,-3 57,-17 11,-10 18,-24 24,-38 1,-2 3,-7 3,-10 -5,-7 -20,-17 -29,-20 -36,-14 -84,-5 -84,40l0 12c-3,1 -9,7 -11,9 -3,-16 -7,-15 -7,-34 0,-5 -1,-9 -1,-14 1,-17 1,-10 7,-22 7,-14 8,-6 18,-11 6,-3 3,-5 5,-9 1,-1 3,-1 3,-4 1,-2 -1,-3 -3,-4 -7,-4 -42,-6 -53,-4 -6,1 -22,-3 -23,6 -6,0 -14,-3 -19,-6l-10 -6c-21,-15 -22,-30 -32,-51l-11 -20c-1,-2 -3,-4 -4,-7 16,0 31,5 44,12l0 -10c9,0 16,2 23,6 2,1 4,3 7,4 0,-9 11,-17 24,-4 2,1 5,5 6,7 3,0 8,-9 11,-11 12,-12 9,-14 23,-3 3,2 6,5 9,9 2,-2 3,-3 5,-5 2,-1 4,-3 6,-4 5,-2 11,-4 17,-4 1,3 1,10 -1,13 3,-1 5,-4 8,-6 4,-3 14,-8 19,-4 2,2 4,6 4,9 3,-1 3,-2 6,-4 8,-5 13,-3 23,-3 -1,1 -1,1 -2,2l-2 3c-2,1 -3,3 -4,4 -15,18 -16,41 -31,57 -4,5 -8,10 -14,14 -1,1 -4,2 -5,3z"/>
  <path class="fil1 str0" d="M1504 1569c2,-1 6,-4 9,-4 1,3 12,20 12,21 0,4 -3,6 -6,5 -4,-1 -13,-17 -15,-22zm76 -49l12 -9c3,2 3,3 5,5 2,2 4,4 6,6l-14 11c0,-3 -6,-8 -9,-13zm-145 73l0 1c2,1 5,3 7,4 2,-1 6,-3 8,-3 1,3 3,6 4,8 1,3 3,6 4,9 -2,1 -5,4 -8,4 -2,1 -3,0 -4,-1 -2,-1 -2,-1 -4,-2 0,-6 0,-10 -3,-13 -4,-6 -11,-5 -17,-5 -10,0 -21,13 -12,22 4,4 5,4 10,4 3,0 4,0 4,-2 -9,-2 -8,-14 1,-14 5,0 11,11 0,18 -13,7 -19,22 -2,32 8,5 16,1 22,-4 3,1 7,5 13,6l7 -7c-3,0 -5,-1 -8,-1 -3,-1 -5,-2 -8,-3 0,-1 4,-12 -9,-12 -5,0 -6,4 -6,10 -10,-2 -3,-12 0,-15 3,-4 6,-6 7,-11 7,8 6,12 21,3 4,6 1,5 10,7 4,0 10,2 15,2 -1,-2 -2,-3 -3,-5l-13 -25c-8,-16 -9,-9 18,-23 4,7 14,26 22,26 6,0 11,-1 15,-4 3,-2 7,-8 7,-13 0,-3 -11,-22 -13,-26 3,-2 6,-3 9,-5l18 27 23 -1c-1,-2 -4,-7 -6,-10 -2,-3 -4,-5 -6,-9 -2,-3 -11,-15 -12,-18 5,-3 17,-13 19,-13 3,1 9,10 12,12l-3 4c2,4 6,7 8,11 5,0 7,1 11,1 1,-2 3,-4 4,-6l3 -5c-1,-2 -3,-4 -4,-6l15 -12c3,3 0,3 10,1l13 -2c0,-3 -18,-19 -21,-22l-7 -8c2,-2 9,-7 10,-8 -1,-3 -2,-5 -4,-6 -2,0 -8,6 -10,8l-30 23c-11,9 -40,29 -53,36 -11,6 -22,12 -35,19l-49 22z"/>
  <path class="fil1 str0" d="M1236 388l0 1 0 -1zm-37 -8l0 0zm1 -1l-1 1 1 -1zm1 0l-1 0 1 0zm1 -1l-1 1 1 -1zm0 0l0 0zm18 -1l0 -2 2 0c-2,2 0,1 -2,2zm6 0l3 0c0,2 -2,2 -4,3 -1,-7 -5,-5 -2,-6 2,0 2,2 3,3zm-12 2c0,3 5,2 6,2 -1,5 -9,3 -8,-7 0,-5 6,-9 6,-6 0,5 -4,4 -4,11zm22 9l0 -3c-8,0 -12,1 -14,8l-1 3c-1,-5 2,-7 3,-10l-7 0c0,-1 1,-1 1,-1 0,0 0,0 0,0l4 -2c0,-4 -2,-5 1,-6 0,3 0,3 1,5 3,0 6,-2 7,-5 0,-3 -3,-2 -5,-2l-1 -2c-4,0 -2,1 -7,1l0 6 -2 0c0,-3 -1,-4 1,-6 2,-2 2,-2 3,-5 3,1 1,-1 6,2 3,2 4,2 7,1 1,-3 1,-5 2,-7 0,1 0,0 1,1 0,1 0,2 1,2l4 0c-2,3 -1,4 -1,9 2,1 2,0 4,2 -5,0 -6,2 -7,6l-1 3c0,0 0,0 0,0zm-8 -18c-3,-2 -3,-2 -8,-2 0,-3 0,-3 1,-5 5,-5 11,-4 14,-1 -1,3 -2,1 -2,4 -1,4 1,3 -2,4 -2,1 -3,0 -3,0zm-24 -13l16 1 18 -1c-1,1 -1,2 -2,4 -1,-1 -4,-4 -10,-3 -2,1 -7,4 -7,8 -3,0 -4,0 -6,2 -5,6 -3,12 1,17l-3 1c0,-3 -3,-7 -3,-9 0,-3 0,-7 -1,-10 2,0 2,0 4,1 0,-7 -5,-9 -7,-11zm167 -113l-4 0c2,-2 2,-2 4,0zm2 -5c5,-1 5,-2 5,5l-3 0c1,-2 1,-1 2,-4l-3 -1c-1,0 -1,0 -1,0zm-276 -5c0,-31 14,-63 36,-85 9,-8 15,-13 26,-19 40,-24 93,-22 131,4 3,2 6,4 9,6l8 7c11,11 20,24 27,38 5,11 10,30 10,42 0,25 -2,38 -13,61 -4,6 -12,19 -17,24 -9,9 -12,13 -24,21 -50,33 -114,27 -156,-14 -11,-11 -19,-23 -26,-36 -5,-12 -11,-32 -11,-49zm276 5c-4,0 -1,0 -4,1 0,-2 0,-1 0,-3 3,0 2,0 4,2zm-304 -3c2,2 1,1 3,1 2,1 1,1 3,3 -4,1 -6,0 -6,-4zm18 -5c3,1 0,1 7,5 0,10 1,13 1,18 -4,-2 -8,-4 -13,-5 0,3 -2,6 -4,8 0,-6 -4,-9 -6,-12 -2,1 -4,2 -6,2 0,-1 1,-2 1,-4 0,-2 0,-4 0,-6 5,6 2,5 7,5 0,3 2,4 5,5 0,0 0,0 0,0 0,0 2,-1 2,-3 1,-3 -1,-3 -1,-4 2,-1 0,-1 3,2 8,6 9,-4 6,-8l-2 -3zm-18 4l-1 0c-1,-5 0,-5 2,-7 -1,3 -1,3 -1,7zm5 -10l0 9 -1 0 0 -6c-1,-1 0,-1 -2,-1 1,-2 0,0 3,-2zm12 1c6,0 8,0 8,6 0,3 -2,1 -3,0 -2,-1 -1,-3 -5,-3 -2,5 3,6 3,8 0,3 1,8 -5,4 -3,-3 0,-4 -4,-5 -3,6 0,4 -1,10l-2 0c-1,-3 1,-1 -2,-2 1,-2 1,-5 1,-7 2,-4 1,-1 5,-2 0,-4 -2,-3 -2,-6 6,-1 1,0 6,1l1 -4zm8 -1c-4,0 -6,0 -11,0 0,2 0,1 1,3 0,0 -7,-3 -7,2 0,2 1,1 2,4l-3 0c0,1 -1,1 -1,3 -2,-2 0,-2 -4,-1 0,-3 -2,-5 1,-8 0,4 -1,6 2,7 2,-2 1,-3 1,-12 -3,0 -4,2 -6,4 -3,3 -3,2 -3,7 -3,0 -5,-2 -6,-4 13,-1 6,-11 13,-11 3,0 4,1 7,2 0,-2 0,-2 0,-5 4,2 1,2 11,2 2,0 2,-3 2,-5l2 0c0,5 -1,8 -1,12zm271 19l0 2 7 0c0,-4 0,-3 -1,-6 5,1 3,1 2,4 2,1 2,1 4,2 -2,3 -5,5 -5,10 -4,-1 -3,-6 -4,-7 -1,-1 0,0 -2,0 -1,0 -2,1 -2,1 -2,0 -4,1 -5,2 -2,1 -5,3 -8,4 -1,1 -2,2 -3,3 -2,1 -1,2 -4,2 2,-4 3,-20 3,-26l-1 -20c0,-2 -1,-5 -1,-7 6,4 1,5 11,5 0,1 1,3 1,5 6,0 8,1 11,-1 0,0 1,-3 1,4 4,0 4,-2 10,-2 1,1 1,2 2,3 0,3 -1,3 1,5 1,1 4,3 7,3 -2,3 -3,4 -7,5 0,4 1,9 2,12 -2,0 -4,-1 -6,-1 2,-6 2,-6 -1,-10 -3,0 -2,1 -4,1 -5,-2 -5,-2 -5,4 0,0 2,0 -3,3zm-156 -169l0 -1 0 1zm26 -1c0,-1 0,0 0,-1 0,-1 0,-2 0,-3l0 0 0 4zm-26 0l-1 -1 1 1zm-1 -1l0 0 0 0zm0 0l-1 -1 1 1zm-1 -1l0 0zm28 2c4,5 0,9 9,9 -1,3 -1,2 -5,2l0 10 3 2 -7 0c0,4 -2,6 3,14l-30 -1c-2,0 -3,0 -5,1 3,-4 6,-4 8,-13l-7 1c0,-1 1,-1 1,-1 0,0 1,0 2,-4 0,-3 1,-4 1,-7 -5,0 -10,-2 -11,-6 3,2 5,5 10,5 0,-2 1,-4 2,-6 1,-4 2,-3 0,-5 4,0 2,1 6,0 2,0 5,0 7,0 0,-2 -1,-3 -1,-5 -1,-3 -1,-3 -1,-7 3,2 0,5 4,10 3,4 5,2 11,3 0,-1 0,-1 0,-2zm-18 -3c-2,1 -1,1 -4,1 -3,0 -6,-8 -9,-10 -3,5 -3,8 1,13 2,4 0,3 0,7 -4,-1 -6,-5 -7,-9 -1,-2 -1,-10 -1,-14 -3,3 -4,15 -4,19 0,5 2,8 6,10 2,1 3,2 5,2l0 5c-6,1 -10,-1 -15,-2 1,8 8,9 16,9 -7,12 -24,11 -41,21 -2,0 -3,1 -5,2 -7,4 -14,9 -21,14 -1,2 -2,2 -4,4 -16,15 -24,28 -33,49 -1,3 -3,7 -3,10 -2,7 1,8 -7,8 -1,1 -1,2 -2,4l-5 0c-1,-2 -2,-4 -2,-8 -5,0 -5,1 -5,10 -4,-1 -8,-2 -11,3 -2,4 1,7 -5,7 -3,0 -4,-2 -5,-4 -1,-3 -2,-5 -4,-6 0,7 4,19 12,21 0,13 -6,9 -5,15 6,0 8,-2 12,-2 3,5 4,9 2,15 0,1 -1,2 -1,3 3,-2 11,-10 12,-14 4,0 12,4 13,8 7,29 25,56 50,73 25,17 36,15 50,22 3,2 7,4 9,6 -9,0 -15,1 -16,9 2,-1 14,-5 14,0l0 2c-5,0 -11,5 -11,10 0,4 3,11 4,15l0 -1c0,0 0,-1 0,-1 2,-5 0,-15 9,-16 0,2 0,2 1,3 -3,3 -6,6 -4,11 1,1 1,1 3,2 1,-3 4,-7 7,-8 1,-1 3,0 5,0l-1 6c0,4 5,8 9,8 0,-4 -2,-5 0,-9 1,-4 2,-4 6,-5 0,3 1,5 4,7 1,1 6,2 8,3 -2,-6 -6,-4 -3,-13 2,-8 8,-1 14,0 -1,-2 -3,-5 -5,-7 -2,-2 -4,-5 -7,-5 1,-7 17,2 21,2l-5 -3c-6,-4 -12,-8 -20,-8 0,-5 3,-7 6,-9 9,-6 33,-3 67,-37 12,-11 24,-29 29,-45 1,-5 2,-5 5,-9 4,-3 14,-11 19,-11 3,5 7,11 12,14 0,-8 -5,-9 1,-18 5,0 7,2 13,2 0,-3 0,0 0,-1 -1,-5 -5,-2 -5,-14 8,-2 11,-14 12,-21 -4,1 -4,10 -9,10 -2,0 -2,0 -3,-1 -2,-4 -2,-10 -9,-10 -2,0 -2,1 -4,1 0,-3 -1,-7 -2,-10l-4 0c0,6 0,8 -5,8 -3,0 -2,-2 -3,-4 -7,0 -7,1 -11,-4 -9,-11 -8,-17 -14,-29 -9,-15 -19,-28 -32,-39 -8,-7 -17,-12 -27,-17 -7,-3 -14,-6 -21,-7 -3,-1 -9,-2 -11,-4 -3,-2 -5,-5 -5,-10 9,0 21,-8 24,-12 -7,1 -12,7 -20,5l0 -4c6,-1 11,-9 11,-14 -3,2 -6,5 -10,5 -4,0 -4,-9 -4,-12 0,-3 3,-6 4,-8 -5,0 -10,3 -11,7 -1,3 0,4 -3,4 -4,0 -5,-8 -5,-12 0,-3 1,-2 1,-5 -4,2 -6,2 -8,6 -1,3 -1,8 0,11z"/>
  <path class="fil1 str0" d="M1198 305c2,-2 5,-5 6,-8l6 -8c0,8 3,16 3,18 0,1 -5,8 -9,10 -1,-2 -2,-3 -4,-5 -1,-3 -1,-5 -2,-7zm36 -16c2,1 3,5 5,7 4,6 8,5 0,20 -4,-1 -11,-9 -11,-10 0,-2 2,-5 2,-7 1,-3 1,-5 2,-7 1,2 1,5 2,7 1,3 1,5 3,6 0,-2 -2,-15 -3,-16zm25 -2l10 5c3,3 0,9 0,13 -3,0 -8,-3 -11,-5 -3,-2 -2,-5 -2,-13l2 3c2,2 5,6 7,8 -1,-5 -5,-8 -6,-11zm-3 0l0 0zm3 0l0 0zm-74 -5c-1,3 -2,4 -3,6 -2,2 -3,5 -4,7 3,-2 7,-10 10,-11 -4,14 -2,12 -8,17 -3,1 -4,2 -7,3 -1,-6 -2,-7 -2,-14 3,-2 5,-2 7,-4l7 -4zm1 -1l-1 1 1 -1zm0 0l0 0zm42 -11l-1 1 1 -1zm-10 1c1,-2 1,0 3,-3 1,0 1,0 2,1l2 2c-3,0 -4,0 -7,0zm-10 -3c3,0 2,0 4,-2 1,2 2,3 4,5 -3,0 -5,-1 -8,-2l0 -1zm66 0l15 2c2,0 6,8 6,11 -3,1 -9,1 -13,1 -2,0 -2,-2 -4,-5 -2,-3 -3,-4 -4,-6 2,1 7,4 10,5 -2,-4 -8,-6 -10,-8zm-46 2c2,-3 2,-1 2,-5 0,0 0,0 0,0 1,2 5,3 6,3 -3,1 -5,2 -8,2zm-73 5c4,-1 11,-5 14,-6l-6 10c-2,2 0,1 -3,1 -5,2 -7,1 -11,1 0,-4 2,-10 3,-12 2,-2 7,0 13,-1 -2,2 -7,3 -10,7zm82 -8l0 0c0,0 -1,0 0,0zm-23 -1c0,-4 6,-4 6,0 0,4 -6,4 -6,0zm-10 1l0 0zm24 1c-1,0 -5,2 -5,-2 0,-4 8,-4 5,2zm-20 -1c-4,0 -4,-6 0,-6 3,0 3,6 0,6zm24 -3c0,-2 0,-4 3,-4 2,1 2,2 3,3 -3,6 -6,2 -6,1zm6 3c1,-2 1,-2 1,-6 1,1 1,1 3,2l3 0c0,0 0,0 0,0 -3,1 -4,3 -7,4zm-34 -6c-1,4 -1,2 0,6 -3,-1 -6,-3 -7,-4 4,0 4,0 7,-2zm16 1l3 0 -2 2c0,-1 0,-1 -1,-2zm-23 1l-1 -1 1 1zm27 -2l0 0c0,0 0,0 0,0zm-28 1l-1 -1 1 1zm52 -2l0 0zm-19 4c0,-2 -1,-2 -2,-3 3,0 2,-1 4,-1l-1 3c0,0 0,1 -1,1zm-19 -4c3,0 4,0 5,2 -2,1 -1,1 -3,2 0,-3 -1,-3 -2,-4zm28 -1l0 0zm-28 1l-1 -1 1 1zm-13 -1c0,-3 2,-3 5,-3 0,1 2,5 -3,5 -1,0 -2,-1 -2,-2zm45 -3c7,0 3,8 -1,4 -2,-1 -1,-4 1,-4zm-33 3c-3,0 -4,1 -5,2 0,-3 0,-1 0,-5l5 3zm-19 -3c3,1 3,1 5,0l0 5c-2,-1 -4,-3 -5,-5zm58 4c0,-2 -1,-3 -1,-4l4 0c-1,2 -1,3 -3,4zm-10 -1c-2,0 -2,0 -4,0 1,-1 0,0 1,-1 2,-2 2,-2 4,-2 -1,1 -1,1 -1,3zm13 -3l0 0zm-4 0l-1 -1 1 1zm-57 0l-1 -1 1 1zm56 -1l0 -1 0 1zm-6 -1l0 0zm-51 1l0 -1 0 1zm9 -4l3 3 -4 0c1,-1 1,0 1,-3zm42 3c2,-1 3,-3 4,-4 0,3 1,3 2,4 -4,0 -2,-1 -6,0zm-11 -4c4,0 2,5 2,6 -3,0 -5,0 -5,-2 0,-2 1,-4 3,-4zm-25 3l0 0zm-13 -3c8,-2 5,5 3,5 -2,0 -2,0 -3,-1 -1,-4 0,-2 0,-4zm60 4c-7,1 -6,-5 -2,-5 4,0 3,3 2,5zm-18 -3l6 0c-1,2 -5,5 -7,5 1,-2 1,-2 1,-5zm-24 -3c4,0 2,5 2,5 -4,1 -1,1 -5,0 0,-2 0,-5 3,-5zm31 3l-1 0 1 0zm-7 0l0 0zm7 -1l0 1 0 -1zm4 0l0 0zm-12 -1l0 0zm14 -1l0 0zm-13 -1c0,-1 2,-2 3,-3 5,1 4,6 0,6 -2,0 -3,-1 -3,-3zm49 1l0 0zm-89 -3l2 0c0,2 0,2 1,3l-3 0c0,-1 0,-1 0,-3zm-8 2c2,1 1,2 4,2 0,2 0,2 0,5 -1,-1 0,0 -1,-1 -1,-1 -1,-2 -2,-2 0,-2 -1,-2 -1,-4zm0 0l0 0zm61 1c0,-3 2,-3 2,-7 1,1 1,4 3,5 3,1 4,0 6,0l-2 4c-1,2 0,1 -1,2 -1,-5 -4,-6 -8,-4zm36 0c5,0 8,1 12,1l0 -1c-4,0 -8,-2 -12,-2l0 -2c8,0 14,-2 16,-2 2,0 9,5 10,8 -2,4 -9,5 -13,7l-9 -7c-1,0 -1,0 -2,-1l-2 -1zm-96 -3c0,-2 1,-2 1,-3 3,0 5,0 5,2 0,3 -6,4 -6,1zm-40 4c5,0 10,-2 15,-2l-12 9c-4,0 -11,-4 -13,-6l3 -3c0,-1 0,-1 0,-1l6 -4c1,0 10,3 13,3 -1,0 0,0 -1,0 -4,2 -8,1 -11,4zm105 -7c0,-4 4,-2 5,-2 0,1 2,5 -3,5 -1,0 -2,-1 -2,-3zm-10 -6c5,0 3,4 3,5 -7,2 -6,-5 -3,-5zm-49 1c0,2 1,1 1,4l-3 -1 2 -3zm-10 0l1 1c0,0 0,1 1,1 1,1 -1,1 2,1l-2 5c0,-3 -2,-5 -2,-8zm2 -1c0,-4 3,-2 5,-2 1,1 3,5 -2,5 -2,0 -3,-1 -3,-3zm13 -2c0,-4 5,-3 5,0 0,1 0,1 0,3 -3,0 -2,0 -5,0 0,-2 0,-2 0,-3zm58 2c-5,-2 -4,-3 -3,-6 2,0 1,0 3,-1 1,1 2,1 2,4l-2 3zm-66 -5c2,-1 1,0 3,-1l0 5c0,-1 -1,-1 -1,-2 -2,-2 -1,-1 -2,-2zm-7 3l0 -7c3,2 0,3 4,4 0,0 0,0 0,0l-4 3zm3 -7c0,-3 6,-4 6,0 0,1 -1,1 -1,3 -3,0 -5,0 -5,-3zm15 -1c0,-3 0,-3 3,-3 2,0 2,1 3,3 -2,3 -6,3 -6,0zm-16 -1c0,3 0,1 -1,2 0,-4 0,-1 1,-2zm64 0c2,1 3,2 5,2 2,-1 3,-2 4,-4l1 0c0,3 1,6 1,11 0,3 -1,4 -1,8l-1 -3c-2,-2 -5,-1 -7,0l-1 1c0,-2 0,-3 0,-6l1 1c2,3 8,3 8,-3 0,-3 -3,-7 -8,-1 0,0 0,0 -1,0 0,-2 0,-4 -1,-6zm7 0c-1,0 -6,2 -6,-3 0,-4 8,-4 6,3zm-61 -3c-1,3 0,3 -2,4 -1,-2 -1,-1 -2,-3 3,0 2,0 4,-1zm-10 3c0,-3 1,-5 2,-7l0 -1c0,4 1,4 2,6 -2,0 -3,1 -4,2zm10 -3l0 0zm46 28c1,-2 2,-3 0,-5 -2,-2 -3,-2 -6,-2 -2,3 -3,2 -2,6 -2,0 -3,0 -6,0 -3,5 -2,6 2,9 0,0 1,0 1,0 -4,0 -7,1 -11,1 -5,0 -6,-2 -10,-3l5 -3c0,-8 -3,-7 -7,-6l0 0c-2,3 -2,2 -2,6 -2,-1 -5,-4 -6,-7l0 0c-1,-1 -1,-1 -1,-2 -1,-1 -1,-2 -1,-3 -1,-3 -1,-3 -1,-6l0 1c5,7 13,-1 7,-5l-1 -1c0,0 0,0 0,0 4,0 4,-1 6,-2 0,-10 -5,-7 -9,-5 0,4 0,5 2,7 -3,0 -4,0 -5,2 0,1 0,1 0,1 0,0 0,1 0,1 0,0 0,0 0,0 0,-28 37,-36 50,-11 1,2 3,10 2,13 -2,5 -1,-6 -10,0l0 5c4,3 5,2 9,0 -1,3 -4,8 -6,9zm16 -31l0 0zm-63 2c-1,0 -5,2 -5,-3 0,-4 8,-3 5,3zm91 3l0 -1c3,0 9,-1 12,-3 -6,0 -9,1 -14,1l5 -4c6,-3 6,-6 17,-2 1,1 1,1 3,1 0,4 1,2 -1,4 0,1 -1,2 -2,3 -10,11 -7,1 -20,1zm-28 -5c-2,-1 -3,-2 -5,-1 -4,1 -2,2 -4,4 -1,-2 -2,-3 -3,-5 2,1 4,1 6,0 1,-1 1,-2 2,-4 0,0 0,0 0,0l1 -1c0,3 2,4 3,7zm-119 -2c3,-2 4,-2 7,-3 10,-4 7,-3 20,4l1 1c1,1 1,0 1,1 -5,0 -11,-2 -19,-2l5 2c2,1 3,1 6,1 3,1 8,2 11,2l0 0c-5,0 -10,2 -15,3 -1,0 -3,1 -4,1 -3,0 -11,-7 -13,-10zm107 0l0 0zm-57 -1l-1 1 1 -1zm56 -1l0 0zm-48 4c0,-2 0,-1 0,-3 2,0 2,0 3,-1 -1,2 -1,3 -3,4zm-7 -4l-1 1 1 -1zm4 -1l0 0zm55 -4c3,1 3,1 3,5 -1,1 -1,1 -3,1 -4,0 -3,-4 0,-6zm-59 5c0,-2 2,-4 3,-5 0,2 1,2 1,4 -3,0 -3,0 -4,1zm5 -4c0,-4 4,-2 5,-2 1,1 3,5 -2,5 -2,0 -3,-1 -3,-3zm45 0l-1 -1 1 1zm-34 -1c-1,1 -2,2 -4,3l0 -3c2,0 2,0 4,0zm33 0l0 0 0 0zm-33 0l0 0zm45 -1l0 0zm-58 1l0 0zm15 -1c1,-2 1,-2 2,-4l4 2c-4,0 -3,1 -6,2zm-8 -6l0 4 -4 0c1,-2 2,-3 4,-4zm42 0c2,0 6,7 -3,5 0,-2 -1,-2 0,-3 1,-1 1,-2 3,-2zm-12 3l1 0 -1 0zm-14 0l-1 0 1 0zm-14 -1c5,-7 9,3 2,3 -2,0 -2,-1 -2,-3zm49 4l-4 0c-2,2 -2,2 -2,6l-5 -4c5,0 8,-3 6,-7 2,1 4,3 5,5zm-50 -6l-1 0 1 0zm34 -2c0,7 -8,3 -5,-1 2,-2 5,-1 5,1zm-34 2l0 0zm13 2c-3,0 -3,0 -3,-4 0,-1 1,-2 2,-2 4,0 5,6 1,6zm6 -4c0,-6 9,-2 5,1 -2,2 -5,1 -5,-1zm19 9l-8 -4c6,0 7,-4 5,-8 2,1 2,1 3,1l3 2c-3,1 -2,1 -5,3 0,4 0,3 2,6zm-29 -12c-1,2 -1,2 -1,5 -1,-1 -1,-1 -2,-2l-2 -1c0,0 -1,0 -1,0 3,-1 3,-2 6,-2zm0 0l0 0zm20 8l-14 0 3 -5c0,4 2,4 6,4 2,-3 5,-5 -1,-9 11,1 7,1 6,2 -2,2 -3,3 0,8zm-12 -6l-1 -1c0,0 0,0 -1,-1 -1,-1 1,0 -2,0 2,-3 0,-1 3,-2 2,0 2,0 4,0 -2,1 -2,2 -3,4zm-46 -5l0 0zm122 4c-3,0 -6,0 -8,1 -2,0 -6,1 -8,1 3,-3 9,-6 10,-8 -3,0 -10,4 -13,6 1,-2 2,-3 3,-5 2,-2 2,-4 4,-5 2,-2 12,-3 15,-3 0,8 -3,9 -3,13zm-122 -4l-12 -5c1,4 9,5 11,8 -5,0 -8,-1 -14,-1 -1,-3 -4,-8 -4,-11 4,-1 11,-2 13,0l6 9zm83 -9l0 0zm5 -2l0 0zm16 -9l0 0zm-41 -1l0 0zm25 10c1,-4 5,-5 6,-9 -3,1 -4,3 -6,5 -2,2 -3,4 -5,6l4 -14c1,-2 -1,-2 5,-4 10,-4 11,-5 11,2 0,2 -1,2 -1,4 -1,4 -1,3 -8,6 -2,1 -3,2 -6,4zm-75 -3c-2,-1 -4,-2 -5,-3 -4,-2 -3,-4 -3,-13 4,0 8,3 11,4 0,4 -1,7 0,11 -2,-2 -5,-8 -8,-10 0,3 4,8 5,11zm101 -6c-1,10 -16,25 -17,30 9,-2 15,-4 24,-4 3,0 9,1 11,2 -1,3 -10,9 -13,11 -3,2 -14,8 -15,9 3,2 13,3 18,5l16 9c-3,1 -5,2 -8,3 -10,2 -19,3 -31,3l0 2c11,2 21,9 28,16 2,2 4,4 5,6l-9 1c-15,0 -16,-3 -26,-4 0,4 3,5 5,7 5,7 11,16 12,26 -10,-3 -20,-9 -27,-15 -2,-1 -2,-2 -4,-2 0,5 2,10 2,17 0,5 -2,8 -2,12 -8,-2 -19,-27 -22,-28 -1,2 -2,15 -3,20 -1,3 -2,5 -3,8 -2,2 -4,7 -5,8 -5,-3 -9,-26 -9,-32l-2 0c-1,7 -7,13 -12,18 0,1 0,1 0,1 -3,3 -7,7 -11,8 0,-21 6,-33 6,-37 -3,0 -4,3 -7,5 -6,4 -17,11 -25,12 1,-11 12,-23 13,-28 -5,1 -10,3 -21,3 -5,0 -7,-1 -11,-1 4,-6 14,-13 20,-17 2,-1 2,-1 4,-2 2,-1 3,-1 4,-3 -7,0 -13,-1 -19,-2 -5,-2 -12,-6 -15,-7 2,-3 15,-7 20,-8 7,-1 16,-3 25,-3 0,10 0,8 -7,8 -5,1 -10,2 -15,3l3 1c6,1 13,0 19,0 0,5 1,9 2,12 -5,1 -11,5 -15,8 -1,0 -1,1 -2,1 -2,2 -1,0 -2,2 4,0 7,-2 11,-3 2,-1 8,-4 10,-4 1,3 4,6 6,9 -3,2 -11,9 -12,12 4,-1 12,-8 15,-10 2,2 6,5 9,6 -1,3 -2,6 -3,9 -1,2 -2,6 -2,9 2,-2 8,-13 9,-16 2,1 9,3 13,3 0,6 1,11 1,16 3,-2 2,-4 2,-7 1,-4 1,-5 1,-9 2,-1 5,-1 7,-1 3,-1 4,-2 7,-2 0,3 2,6 3,8l3 6c1,1 1,2 2,2 0,-4 -4,-15 -5,-18 3,-1 6,-4 8,-5 2,2 5,5 7,7 1,1 2,1 4,3 1,1 2,2 4,2 -1,-2 -4,-5 -5,-8 -2,-2 -5,-5 -7,-7 6,-8 11,-14 11,-26l18 0c2,0 2,0 2,-1 -3,0 -5,-1 -8,-1 -2,-1 -6,-2 -8,-2 -8,-1 -3,-3 -7,-12 5,-1 17,-5 20,-9 -8,1 -17,5 -22,5 -1,-1 -1,-2 -2,-4 -1,-1 -2,-3 -3,-4 3,-1 7,-5 9,-8l2 -2c1,-2 1,-2 3,-4 -3,1 -7,4 -9,5l-8 7c-1,-2 -3,-3 -5,-5 -2,-1 -4,-3 -7,-3 2,-4 8,-14 8,-19 -3,2 -4,5 -6,8 -2,3 -4,6 -5,9 -5,0 -7,-2 -13,-2l1 -14c0,-4 -1,-4 -1,-7 -2,1 -2,5 -2,7 -1,3 -2,6 -2,9 0,5 1,5 -4,6 -3,0 -6,2 -9,2 0,-4 -6,-19 -9,-21 0,5 4,20 6,23 -2,1 -4,3 -6,4 -2,-3 -15,-13 -19,-14 1,3 3,5 5,6 0,1 0,1 0,1 0,0 1,0 1,0 3,3 7,6 9,10 -2,3 -5,5 -6,9 -3,-2 -17,-6 -21,-6 2,3 15,8 18,9 0,3 0,3 -1,6 -3,-2 -8,-2 -11,-4 -8,-3 -25,-13 -26,-20l13 0c4,0 13,1 17,2 2,1 4,2 6,3 2,1 4,2 7,3 0,-4 -5,-5 -8,-6 -1,-1 -3,-2 -4,-3 -1,-1 -3,-3 -4,-4 -8,-11 -6,-13 -9,-20 11,3 23,11 26,11 0,-10 -2,-10 0,-21 0,-3 1,-6 1,-8 7,5 13,12 17,20 1,3 0,3 3,3 0,-7 7,-24 13,-29 1,3 2,5 3,7 2,9 4,15 4,25 3,0 5,-5 6,-7 3,-3 4,-5 7,-7 3,-3 12,-10 16,-11 0,13 -6,25 -11,37 -1,1 -1,1 -1,2 1,2 3,-3 5,-4l12 -9c3,-2 7,-4 10,-5 3,-1 8,-2 11,-3zm-51 -1c0,-2 1,-4 2,-7 0,-3 1,-5 2,-7 -2,0 -1,0 -2,1 -1,2 -3,9 -4,11l-1 2c0,-3 -1,-6 -1,-8 -1,-4 -1,-4 1,-7 2,-2 2,-3 4,-5 2,-2 3,-3 5,-4 2,3 6,8 6,13 -8,5 -9,9 -12,11zm-27 -2c-1,-1 -1,0 -1,-1 -7,-10 -8,-8 -4,-17 2,-2 3,-3 4,-6 4,3 7,7 9,10 -3,4 -4,7 -5,12 -1,-1 -2,-8 -2,-11 -1,-3 0,-1 -2,-2 0,5 1,9 1,15zm68 3c0,-5 1,-8 -1,-12 -2,0 -6,1 -8,2 -2,0 -5,2 -7,2 1,-1 2,-10 2,-12 -6,0 -10,5 -14,6 -1,-6 -3,-9 -6,-13 -4,1 -11,8 -12,12l-1 0c0,-5 -3,-8 -4,-12 -3,0 -3,2 -4,4 -1,1 -3,4 -4,5 -3,-5 -6,-8 -10,-11 -3,2 -7,11 -8,14 -1,-1 -2,-2 -4,-3 -2,-2 -2,-2 -5,-4 -1,4 -2,9 -2,14 -3,-1 -7,-3 -12,-3 -3,4 -1,7 -1,12 -2,0 -10,-4 -12,-3 -3,0 2,7 2,11 -5,0 -9,-1 -14,0 0,5 2,9 4,13 -5,0 -8,1 -12,1 1,5 7,9 10,12 -8,2 -10,3 -16,6 1,4 3,5 5,7 2,1 4,4 6,4 -1,1 -14,7 -14,7 1,2 1,2 5,4 1,1 3,2 5,2 0,4 -7,5 -8,11 2,2 10,6 13,6 -1,3 -2,1 -4,5 -2,1 -4,2 -4,5 5,0 3,1 12,1 -1,3 -5,10 -4,13 1,4 9,1 14,1 -1,4 -3,7 -4,11 6,0 8,-2 12,-2 0,6 2,10 4,14 4,0 8,-3 11,-5 0,3 0,5 0,7 -1,4 0,4 0,8 4,0 10,-6 13,-8 1,3 3,9 7,12 5,-2 7,-6 11,-10 0,2 3,9 5,11 2,-2 6,-9 7,-12 3,2 7,9 12,10 3,-2 6,-10 6,-13l1 0c1,2 5,6 8,7 1,-3 2,-7 2,-11 4,2 8,6 14,6 2,-3 2,-7 2,-13 4,1 8,4 14,4 0,-4 -3,-12 -5,-15 10,0 6,2 16,-1 0,-7 -5,-10 -5,-13 5,0 8,0 12,-1 0,-3 0,-1 -1,-3 -2,-3 -5,-5 -6,-7 3,-2 11,-4 14,-8l-10 -9c3,0 7,-2 10,-3 0,-2 0,-2 -5,-5 -2,-1 -4,-3 -6,-3 4,-6 5,-3 10,-14 -4,-2 -9,-3 -14,-5 3,-4 8,-6 8,-10 -2,0 -8,-1 -10,-2 -1,0 2,-6 3,-8 1,-5 1,-6 -5,-6 -5,0 -7,1 -11,1 1,-4 5,-7 5,-13 -2,0 -5,1 -6,1 -3,1 -3,1 -6,1z"/>
  <path class="fil1 str0" d="M1377 1241c-6,0 -7,2 -13,1 -5,-1 -9,-2 -11,-4 5,-3 10,-4 11,-5 2,-1 0,-2 5,-2 3,0 4,1 8,2 0,-3 -2,-3 4,-5 4,0 4,0 8,0 2,-4 2,-7 9,-10 3,-2 9,-4 14,-4 0,-3 0,-6 2,-8 4,-3 7,-3 12,-3 0,-4 3,-13 13,-8 1,1 2,2 4,4 3,-5 15,-14 25,-6 3,1 4,3 5,5 4,-2 2,-3 8,-3 6,0 9,5 14,6 1,-2 1,-4 4,-4 4,0 5,2 8,3 13,6 27,-1 37,-1 2,0 3,0 5,1 -1,4 -10,10 -14,12 -13,7 -27,9 -42,11 -16,2 -40,-1 -65,3 -10,2 -12,5 -19,8 -10,3 -13,3 -21,6 -4,2 -8,1 -11,1zm-323 -79c3,3 12,7 16,9l12 5c11,3 22,7 33,8 5,1 11,1 16,1 10,0 19,2 26,8 13,11 6,11 28,22 14,6 28,6 45,6 11,0 25,-4 30,-4 3,5 10,10 15,13 20,12 50,14 73,9 4,3 2,3 10,6 5,1 10,2 15,0 4,-1 10,0 14,-1 3,-1 4,-2 6,-2 9,-3 14,-3 24,-8 7,-4 10,-5 19,-6 22,-2 27,-1 47,0 22,0 58,-8 71,-27 -3,-6 -6,-6 -14,-6 -10,0 -21,8 -33,1 -6,-3 -9,-4 -14,0 -1,0 -1,-1 -2,-1 -1,0 -1,-1 -2,-1 -2,-1 -3,-1 -5,-2 -2,0 -2,-1 -5,0 -3,0 -2,0 -5,1 -2,-3 -9,-8 -15,-7 -7,1 -11,4 -16,8 -2,-1 -3,-2 -6,-3 -2,-1 -4,-1 -6,-1 -4,1 -8,5 -8,9 -8,0 -14,4 -14,12 -8,0 -17,4 -20,10 -3,4 -3,3 -8,4 -3,1 -7,3 -9,3 -3,-1 -5,-2 -9,1 -3,3 -9,3 -12,6 -3,2 -7,1 -11,1 -15,-2 -29,-3 -43,-6 -7,-2 -30,-9 -34,-14 8,-2 15,-6 22,-9 5,-4 22,-4 40,-13 8,-4 11,-5 19,-11l14 -8c2,-1 5,-2 8,-3 6,-1 11,-2 19,-2l0 0c-3,0 -4,-1 -7,-1 -12,0 -23,3 -34,8 -3,2 -6,5 -10,7 -4,1 -7,3 -11,5 -11,3 -21,7 -33,8 -5,1 -4,-1 -7,2 -1,-2 -1,-4 -2,-6 -8,-16 -22,-28 -39,-34 -5,-2 -8,-2 -13,-4 -7,-4 -13,-9 -20,-13 2,7 17,21 25,23 8,2 15,6 22,11l21 19c2,2 3,2 3,5 -8,2 -7,7 -41,11 -3,1 -8,1 -12,1 -3,0 -2,1 -5,-1 -3,-2 -7,-6 -9,-9 -3,-3 -4,-5 -6,-8 -6,-7 -11,-15 -15,-23 -5,-10 -8,-16 -16,-24 -3,-3 -11,-8 -18,-8 8,6 10,7 17,16 2,3 4,7 5,10 2,4 3,8 5,12 2,3 4,7 6,10 1,1 1,1 2,2l5 7c1,2 2,3 4,4l9 8c1,1 3,2 4,4 -10,0 -15,-2 -22,-4 -8,-2 -16,-6 -21,-11 -4,-4 -6,-7 -11,-10 -6,-5 -15,-9 -24,-9 -4,0 -4,1 -6,1 -2,0 -3,-1 -6,-1 -2,0 -5,0 -7,0 -8,0 -16,-2 -24,-3 -7,-2 -14,-3 -20,-6 -5,-1 -16,-6 -20,-7z"/>
  <path class="fil1 str0" d="M886 1525l-1 0 1 0zm-1 0l0 0zm1 0c2,2 4,3 6,5 2,1 5,4 7,4 -1,4 -13,18 -16,22 -2,3 -3,4 -5,7 2,3 3,7 4,10l5 10c2,-1 21,-27 24,-31 2,-2 3,-3 4,-5 2,0 21,13 25,15 4,3 8,5 12,7l14 7c-1,4 -3,5 -4,8 -2,-1 -6,-3 -8,-4l-23 -14c-3,-2 -5,-4 -9,-2 -4,2 -8,12 0,16 4,2 7,-1 8,-4 4,2 8,4 13,7 5,3 9,6 14,9 -9,13 -8,11 -5,17l8 15c2,-1 21,-34 23,-38 4,1 7,4 12,5 1,-3 2,-3 2,-7 -8,-4 -16,-8 -24,-12 -2,-1 -3,-2 -6,-3 -2,-1 -3,-2 -5,-3 -4,-2 -8,-4 -12,-7 -8,-4 -35,-21 -43,-28l-11 -7c-3,-3 -6,-5 -10,-8l-58 -50 -4 5c5,7 31,28 39,36l9 8c-1,3 -3,2 -4,5 -3,0 -4,-2 -6,-4l-23 -20c-2,-1 -2,-1 -3,-2 -4,-3 -7,-6 -11,-9 0,4 -1,8 -1,13 4,3 8,7 11,9 1,1 2,1 3,4 1,8 -9,14 -14,5 1,-3 5,-7 0,-11 -3,-3 -9,-5 -13,-2 -8,6 0,18 4,24 -1,1 -2,4 -2,6 -1,4 1,4 3,6 6,7 5,3 5,-8 12,6 22,1 25,-8 1,-2 1,-3 2,-5 1,1 4,4 6,5 2,2 4,4 7,5 -5,7 -11,10 -10,14 1,2 3,5 5,8 1,2 2,6 4,7 2,-1 5,-5 6,-7 4,-5 19,-21 20,-25z"/>
  <path class="fil1 str0" d="M1020 1074c-6,4 -13,25 -13,28 0,3 3,2 6,2 12,0 26,-5 30,-2 12,8 20,12 37,15 5,1 17,1 23,1 26,-5 20,-15 66,-12 25,1 47,11 71,14l47 4c8,0 10,1 16,2 9,2 32,8 41,10 5,1 10,2 15,3 6,0 11,1 16,1 10,1 20,3 31,3l16 2c4,0 12,1 16,1l0 -1c-4,0 -9,-1 -13,-2l-56 -8c-15,-3 -12,-2 -27,-6 -12,-3 -25,-8 -37,-10 -3,-1 -5,-1 -7,-2 -2,0 -4,0 -7,0 -5,0 -11,-1 -16,-1l-55 -9c-4,-1 -8,-2 -12,-3 -11,-4 -30,-6 -42,-6 -10,-1 -3,-1 -15,0 -7,0 -9,0 -15,1 -15,3 -11,4 -24,8 -21,8 -44,4 -64,-8 -1,-1 -2,-2 -4,-3 -2,-1 -3,-1 -6,0 -8,2 -19,5 -28,5 1,-6 2,-10 4,-15l5 -9c1,-2 1,-1 1,-3z"/>
  <path class="fil1 str2" d="M1419 685l0 0zm81 -16c2,-3 5,-3 9,-12 8,0 18,-3 20,-8 4,0 9,0 13,0 5,0 8,0 13,0l0 2c-31,0 -52,17 -55,18zm0 0c-2,2 -5,4 -8,6 -7,5 -13,14 -18,21 -10,16 -9,29 -9,45l1 0c0,-7 -1,-14 0,-21 2,-15 10,-26 19,-37 2,-3 15,-12 19,-15 14,-10 33,-15 52,-15 1,-2 1,-3 1,-6l-29 0c-6,11 -17,6 -20,10 -4,4 -4,6 -10,10 -4,3 -10,5 -16,5 -4,0 1,-1 -7,-1 -5,9 -4,2 -12,13 -1,1 -2,2 -3,4 -1,1 -2,1 -3,2 -7,8 -13,14 -27,12 -8,-1 -13,-2 -13,-12 1,0 0,0 1,1 1,3 2,5 11,5l-2 0c-3,-2 -2,-1 -6,-3 0,-4 0,-5 2,-7 4,-1 2,5 5,7 0,0 2,1 3,2 -1,-3 -1,-2 -3,-3 0,-4 1,-7 -2,-8 -2,-2 -5,-1 -7,1 1,-2 1,-3 2,-4 8,0 6,2 10,3 11,1 14,-16 19,-22 7,-10 17,-9 24,-17 2,-3 6,-4 7,-7 -19,0 -32,-5 -40,-17 7,2 5,5 21,7 5,0 8,1 13,0 10,-1 6,1 8,-6 1,-2 2,-3 3,-4 1,-2 8,-4 4,-8 -3,-3 -21,4 -24,-10 10,5 24,2 32,-3 -3,-7 7,-15 10,-22 5,-10 -3,-14 20,-30 7,-4 15,-12 20,-18 11,-13 32,-13 48,-10 6,2 9,1 15,3 8,3 14,8 19,15 4,5 10,3 20,13 9,8 14,21 19,31 1,2 2,4 3,6 7,13 8,16 8,34 0,11 -3,19 -4,30 0,23 -12,42 -19,63 -5,14 -7,28 -7,44 -7,0 -15,0 -22,0 -8,0 -13,-1 -21,-1 -37,0 -72,-1 -109,-1 -7,0 -13,-1 -22,-1l0 1c15,0 30,1 45,1 16,0 30,1 45,1l34 0c4,0 6,1 11,1 7,0 15,0 22,0 12,0 19,4 19,-3 0,-16 3,-32 9,-47l3 -8c5,-11 9,-22 12,-33 3,-9 2,-20 4,-30 2,-12 3,-17 2,-30 -1,-11 -17,-43 -25,-54 -5,-6 -12,-11 -19,-15 -5,-2 -4,0 -7,-5 -5,-8 -18,-16 -28,-17l-10 -1c-12,-2 -28,-1 -39,5 -5,3 -18,16 -24,21 -7,6 -19,12 -22,23 -2,7 0,10 -6,17 -4,4 -7,8 -7,16 -6,3 -19,6 -27,2 -2,-1 -4,-2 -6,-4 0,7 3,12 7,15 6,4 12,3 19,3 -1,5 -8,2 -8,13 -11,0 -16,1 -26,-1 -13,-3 -16,-11 -19,-11 1,4 3,8 5,11 7,11 20,16 35,16 -1,2 -4,5 -7,7 -6,4 -18,5 -23,19 -2,5 -7,15 -12,16 -4,0 -12,-11 -17,3 -7,22 22,22 32,16 5,-3 8,-7 11,-10 5,-5 9,-10 14,-14 2,-2 2,-3 3,-4 6,0 2,3 12,0 5,-1 7,-3 12,-4z"/>
  <path class="fil1 str2" d="M839 661c1,-2 2,-2 3,-3 7,-6 4,-8 10,-9 6,-1 15,-2 16,-8 5,0 9,0 14,0 5,0 7,-1 13,-1l0 3c-15,0 -31,5 -44,11 -2,1 -4,2 -6,3 -2,1 -3,3 -6,4zm-58 -48l0 0zm58 48c-3,4 -24,14 -32,42 -1,3 -2,6 -2,10 0,5 0,9 0,13l0 -1c2,-6 -2,-14 8,-34 7,-13 19,-24 32,-32 1,-1 2,-1 3,-2 14,-8 30,-12 48,-12 1,-3 1,-3 1,-6l-29 0c-4,7 -12,8 -20,8 -5,7 -3,6 -9,11 -4,3 -15,7 -19,5 -3,-1 -1,-1 -6,-1 -4,9 -2,3 -6,7 -1,1 0,1 -1,2 -4,3 -2,2 -5,5l-13 13c-11,8 -27,5 -30,1 -1,-2 -2,-3 -2,-5 0,0 0,-2 0,-3l1 -3c0,-3 1,-4 3,-6 9,0 5,2 10,3 11,1 14,-16 19,-22 8,-12 14,-8 24,-17 4,-4 6,-5 7,-7 -14,0 -24,-2 -33,-9 -2,-2 -6,-5 -7,-8 7,4 13,6 21,7 5,0 8,1 13,0 9,-1 6,1 8,-6 1,-6 11,-8 7,-12 -1,-1 -4,-1 -6,-1 -5,0 -9,0 -12,-2 -2,-1 -3,-1 -5,-3 -1,-1 -2,-2 -2,-4 9,5 26,2 33,-3 0,-11 2,-10 7,-17 8,-12 0,-14 14,-28 4,-4 9,-8 14,-11 18,-14 17,-27 49,-26 6,0 10,1 15,2 10,2 16,1 25,9 8,7 6,9 13,13 10,4 18,11 23,19 6,10 20,37 21,46 2,15 -1,29 -3,44 -1,5 -1,11 -2,15 -3,13 -8,25 -13,37 -1,4 -3,8 -5,12 -4,12 -6,30 -6,44 -8,0 -15,0 -22,0 -8,0 -14,-1 -22,-1 -37,0 -72,-1 -109,-1 -7,0 -13,-1 -22,-1l44 2c7,0 15,0 22,0l33 1c5,0 6,0 11,0 4,0 7,0 11,0 5,0 7,1 11,1 7,0 15,0 23,0 7,0 13,0 21,0 0,-10 2,-21 4,-30 2,-11 4,-15 8,-26 5,-12 10,-24 13,-37 2,-6 3,-26 5,-37 5,-21 -1,-32 -9,-48 -5,-11 -13,-25 -20,-32 -9,-9 -19,-11 -20,-14 -6,-8 -15,-14 -26,-17 -3,-1 -4,0 -8,-1 -2,0 -4,-1 -7,-1 -13,-3 -28,-1 -37,4 -9,6 -15,14 -22,20 -9,8 -16,10 -23,21 -3,5 -1,9 -3,14 -4,9 -11,9 -11,23 -21,10 -31,-1 -34,-2 0,17 13,18 27,18 -2,3 -3,2 -6,5 -1,2 -2,4 -2,8 -11,0 -15,1 -26,-1 -14,-4 -13,-8 -19,-12 0,18 24,28 40,28 -1,1 -6,6 -7,6 -8,6 -17,5 -23,19 -12,26 -14,13 -22,13 -9,0 -13,21 1,25 13,3 23,0 32,-8 1,-2 1,-3 3,-4 2,-2 2,-1 3,-4 4,-4 7,-7 11,-10 1,-2 2,-2 2,-5 6,0 3,2 6,2 4,0 9,-2 12,-3 1,0 2,-1 3,-1 2,-1 1,-1 3,-1z"/>
  <path class="fil1 str0" d="M1220 333c-38,0 -73,-23 -90,-56 -19,-38 -11,-84 20,-114 4,-4 9,-7 13,-11 25,-17 60,-22 90,-12 2,0 6,2 8,3 9,4 20,10 27,17l2 1c0,0 0,1 0,1 0,0 0,0 1,1 2,2 4,3 6,6 14,15 25,40 25,60 0,18 -2,31 -10,47 -4,8 -9,15 -15,22 -9,10 -16,15 -27,22 -12,7 -33,13 -50,13zm-104 -102c0,31 10,55 31,76 11,10 25,19 40,24 8,2 18,4 27,5 8,0 0,1 12,0 11,-1 18,-2 28,-5 13,-4 22,-10 33,-18 1,-1 2,-2 3,-3 2,-2 2,-2 4,-3 7,-6 17,-21 21,-29 15,-28 13,-60 1,-88 -5,-11 -13,-21 -22,-30 -10,-10 -26,-19 -40,-24 -30,-10 -57,-6 -85,8 -7,3 -16,11 -22,16 -18,19 -31,43 -31,71z"/>
  <path class="fil1 str0" d="M1195 1532l51 -41c4,-3 5,-2 16,1 13,3 19,3 31,9 2,1 4,4 7,4 0,-8 -11,-14 -18,-17 -7,-3 -18,-4 -26,-2 -2,1 -1,1 -3,1 3,-5 42,-26 53,-27 -2,2 -2,1 -4,3 3,1 3,1 7,1 10,0 23,1 32,5l8 4c2,1 -1,1 2,1 -2,-5 -1,-6 -6,-10l-10 -6c0,0 0,0 0,0 0,0 0,0 0,0 5,0 16,4 20,5 -1,-2 -2,-2 -4,-3 -1,-1 -2,-1 -4,-2 -8,-4 -21,-8 -32,-6 -13,1 -22,3 -35,9 -8,4 -14,7 -22,11 -13,9 -21,15 -32,26l-4 3c-2,2 -4,4 -7,6 -1,-5 -6,-9 -10,-12 -10,-8 -28,-12 -42,-12 -5,0 -7,1 -11,1l0 1c2,0 6,2 8,2 14,5 47,13 53,23 -1,2 -16,17 -18,22z"/>
  <path class="fil1 str0" d="M1378 480c2,1 -1,1 3,1l0 317c2,1 5,1 7,0 1,-6 0,-148 0,-158 0,-9 -1,-153 1,-158l-1 -6 -6 0c-2,1 -1,0 -2,4l-2 0z"/>
  <path class="fil1 str0" d="M1060 478l1 320c1,1 5,1 6,0l1 -322c3,0 0,1 1,-1 -3,0 1,0 -3,-1 -2,-1 -4,-1 -6,0l0 4z"/>
  <path class="fil1 str0" d="M898 1322l28 -5c11,-1 20,-2 31,-2 4,0 5,-1 8,-1l23 2c11,1 19,3 28,7 10,3 18,7 26,14 9,8 15,11 27,16 7,3 32,10 40,10 -1,-2 -14,-6 -17,-7 -11,-4 -23,-9 -33,-15 -7,-4 -7,-5 -13,-11 -17,-16 -49,-24 -73,-24 -20,0 -49,5 -67,13 -3,1 -7,1 -8,3z"/>
  <path class="fil1 str0" d="M924 1349l0 1c10,0 18,0 27,2 9,1 16,1 26,3l12 3c4,1 8,2 11,3l11 4c2,2 2,2 4,4 25,21 45,11 60,21 8,6 5,10 16,13 6,2 19,3 24,1 1,-1 1,-1 2,-1 -10,0 -26,-2 -31,-9 -2,-4 -2,-5 -5,-8 -3,-2 -6,-3 -8,-5 -3,-1 -7,-3 -10,-3 -12,-4 -22,-1 -39,-14 -12,-8 -6,-6 -27,-12 -18,-6 -43,-6 -62,-5 -4,1 -7,2 -11,2z"/>
  <path class="fil1 str0" d="M1290 1427c-1,-2 -2,-3 -4,-5l-1 -2c0,0 -1,0 -1,0l-7 -6c-1,-1 -3,-2 -5,-4 -3,-2 -7,-4 -10,-6 -11,-6 -23,-9 -36,-17 -13,-8 -28,-18 -39,-29 -5,-5 -14,-12 -17,-18 -10,-12 -26,-26 -44,-26 1,0 0,0 1,1 1,0 1,0 2,0l9 4c14,8 18,15 26,26 12,16 29,30 45,41 5,4 16,10 22,13l13 5c27,6 44,22 46,23z"/>
  <path class="fil1 str2" d="M1647 695c-3,3 -5,14 -6,18 -2,7 -2,14 -2,23 -7,0 -14,0 -21,0 -7,0 -13,-1 -20,-1l-31 0c-3,0 -5,-1 -10,-1l-83 0c0,-18 3,-27 14,-41 7,-7 12,-11 20,-17 6,-4 17,-9 24,-13l13 -5c-9,1 -36,14 -45,21 -14,11 -25,23 -28,40 -1,4 -3,14 -1,18 4,2 35,0 42,0 4,1 6,1 10,1 21,0 116,1 118,-1 1,-1 0,-7 0,-10 0,-4 0,-9 1,-12 0,-3 1,-7 2,-11 1,-3 2,-6 3,-9z"/>
  <path class="fil1 str0" d="M1143 1436l23 5c12,3 22,6 34,11 4,2 8,4 13,5 13,5 31,10 45,6 -2,-1 -8,-2 -12,-3 -5,-1 -9,-2 -13,-4 -31,-10 -42,-23 -82,-20 -3,0 -6,0 -8,0z"/>
  <path class="fil1 str0" d="M867 1286c19,-9 36,-15 57,-7 13,4 5,4 17,0 8,-3 17,-2 25,-1 2,1 4,1 6,2 3,0 4,1 7,1 -2,-2 -10,-6 -13,-7 -9,-4 -19,-6 -28,-3 -5,2 -4,2 -8,0 -15,-6 -34,-5 -48,2 -3,2 -14,9 -15,13z"/>
  <path class="fil1 str2" d="M986 688c-6,6 -7,33 -7,40 -8,0 -13,-1 -20,-1 -48,0 -98,-1 -146,-1 0,-9 1,-18 5,-26 5,-11 13,-21 23,-28 12,-8 24,-14 37,-19 2,-1 5,-2 7,-3 -7,0 -25,9 -33,13 -5,3 -9,6 -14,9 -18,15 -27,28 -27,53 0,5 2,4 8,4 7,0 16,-1 23,0 4,0 7,0 11,0 18,0 100,0 105,1 2,0 21,1 22,-1 1,-1 0,-15 1,-22 1,-6 5,-18 5,-19z"/>
  <path class="fil1 str0" d="M1552 1191c5,0 5,-1 8,-1 0,9 10,18 20,17 7,0 15,-9 29,-2 5,2 6,3 9,5 -2,-7 -12,-15 -22,-15 -4,0 -5,0 -10,2 -5,1 -11,5 -17,-5 -6,-10 1,-12 -13,-8 -15,4 -18,-2 -23,-3 2,6 11,10 19,10z"/>
  <path class="fil1 str0" d="M1455 1378c2,-2 4,-5 6,-7 4,-5 10,-10 17,-9 3,0 9,0 11,2 -7,2 -12,9 -12,14 0,8 0,4 1,10l2 0c3,-12 9,-17 22,-17 2,0 7,0 9,-1 2,0 1,0 -1,-2 -4,-3 -14,-6 -19,-4 -1,-2 -2,-3 -4,-5 -11,-11 -32,-6 -32,19z"/>
  <path class="fil1 str0" d="M1298 1226c4,0 4,0 7,0 18,-1 36,-5 52,-14 6,-3 12,-7 18,-11 2,-1 2,-2 4,-4 2,-1 3,-1 3,-3l-31 12c-3,1 -7,3 -10,4 -7,2 -14,5 -21,8l-16 5c-2,1 -4,1 -6,3z"/>
  <path class="fil1 str0" d="M1148 1427c5,0 6,-1 10,-2 6,-2 12,-6 16,-10 3,-4 2,-5 6,-7 6,-3 11,-5 19,-7 11,-2 12,-1 24,-1 -1,-2 -2,-2 -4,-3 -14,-5 -28,-4 -42,2 -13,7 -3,9 -21,22l-7 5c-2,1 -1,0 -1,1z"/>
  <path class="fil1 str2" d="M1598 567l0 -1c4,-5 6,-10 17,-12 17,-3 28,3 35,18 1,1 1,2 1,3 7,24 12,17 16,28 1,5 -1,8 -1,12 -4,15 -2,29 -6,39 -4,11 -11,9 -11,32l1 0c0,-25 13,-20 16,-44 0,-3 0,-5 0,-8 2,-15 8,-29 2,-38l-4 -4c-6,-5 -7,-13 -10,-20 -2,-4 -4,-7 -6,-10l-2 -2c-11,-13 -31,-11 -42,-3 -2,2 -6,6 -6,10z"/>
  <path class="fil1 str0" d="M1020 1441c7,-2 2,-1 11,-1 6,0 19,6 23,9 2,2 1,2 3,4 9,7 23,8 34,5 1,0 2,0 3,-1 0,0 1,0 2,-1 1,0 0,0 1,-1 -30,0 -31,-9 -39,-14 -10,-6 -30,-12 -38,0z"/>
  <path class="fil1 str0" d="M962 1210c7,-4 25,-34 29,-41l10 -18c1,-2 4,-6 5,-9 -11,6 -20,19 -26,29 -6,9 -17,29 -18,39z"/>
  <path class="fil1 str0" d="M1290 1369c17,0 22,-7 41,6 2,2 4,3 6,5 -1,-8 -16,-21 -26,-21 -12,0 -14,2 -20,2 -10,0 -20,-1 -29,-5 1,6 18,13 28,13z"/>
  <path class="fil1 str0" d="M1152 1473l0 1c8,0 42,6 50,8 4,1 12,4 16,4 -3,-5 -11,-9 -17,-12 -12,-5 -30,-7 -44,-3 -2,1 -2,2 -5,2z"/>
  <path class="fil1 str2" d="M938 557c2,-1 2,-2 3,-4 7,-8 27,-12 38,-4 18,15 10,27 23,38 2,2 4,4 5,8 1,6 -1,11 -2,17 -2,12 0,28 -7,38 -1,2 -2,2 -3,4 -3,5 -6,13 -6,19l1 3c0,-18 9,-21 13,-31 4,-10 2,-26 5,-39 6,-21 -7,-16 -13,-36 -3,-10 -7,-17 -15,-23 -7,-5 -16,-5 -25,-3 -7,2 -15,6 -17,13z"/>
  <path class="fil1 str2" d="M879 632c5,7 20,2 23,3 4,0 2,1 9,1 5,-6 0,-6 5,-14 2,-2 3,-4 4,-7 1,-5 0,-4 -1,-7l-1 2c-3,9 -13,6 -15,16 -8,-4 -13,8 -24,6z"/>
  <path class="fil1 str2" d="M1539 640c5,7 20,3 24,3 4,0 1,1 9,1 4,-6 -1,-5 4,-14 3,-5 6,-6 4,-14l-2 2c-3,9 -12,7 -14,16 -4,-2 -10,1 -12,3 -5,3 -6,4 -13,3z"/>
  <path class="fil1 str2" d="M1549 611c-3,0 -3,0 -6,1 -9,3 -3,-1 -8,-1 -5,0 -8,6 -12,8 -8,4 -11,4 -14,5l-1 1c22,0 28,-1 45,-11 -1,-4 -2,-15 -2,-20l-2 0c-3,14 0,8 0,17z"/>
  <path class="fil1 str2" d="M890 603c-3,0 -5,0 -8,1 -8,3 -5,-5 -14,3l-3 2c-1,1 -1,1 -3,2 -5,3 -9,3 -13,5 0,0 0,0 -1,0l0 0c12,0 25,0 36,-5l9 -5c-1,-3 -2,-5 -2,-9 0,-5 -1,-7 -1,-12 -5,4 -1,17 0,18z"/>
  <path class="fil1 str0" d="M1284 1474l0 1c4,1 7,2 10,3 4,1 7,2 11,3 5,1 16,6 21,6 -3,-11 -21,-20 -35,-16 -3,1 -5,3 -7,3z"/>
  <path class="fil1 str2" d="M1596 585c0,14 3,4 -3,12 -1,3 -3,7 -3,11l4 -8c1,-2 3,-4 6,-5 0,-2 -3,-16 4,-17 9,-3 8,2 12,-13 8,-2 18,0 24,5l4 4c2,2 2,3 3,5 4,6 4,10 5,12 0,-3 0,-4 -1,-6 -1,-6 -3,-10 -7,-15 -2,-3 -5,-5 -8,-6 -6,-3 -20,-6 -24,1 -2,3 1,7 -3,8 -6,2 -9,0 -12,9 0,2 -1,0 -1,3z"/>
  <path class="fil1 str0" d="M1403 1181c8,-4 26,-16 33,-22 1,0 2,-1 2,-1 2,-2 2,-1 2,-3 -9,0 -16,2 -24,8 -4,3 -13,11 -13,18z"/>
  <path class="fil1 str0" d="M1005 1207c0,1 0,1 1,3 3,-2 10,-12 12,-16 6,-11 5,-7 10,-18 -10,1 -23,17 -23,31z"/>
  <path class="fil1 str1" d="M1191 607l0 -1c-3,-1 -6,-2 -9,-4 -12,-9 -18,-18 -22,-32 0,-2 -1,-4 -2,-6 -3,-8 -11,-23 -20,-25 1,1 2,2 4,3l6 9c1,2 2,3 3,5 2,3 3,7 4,10 6,14 5,23 20,34 4,3 11,7 16,7z"/>
  <path class="fil1 str1" d="M1305 542c-3,1 -6,5 -8,7l-6 9c-8,13 -12,32 -31,44 -4,3 -6,3 -10,4l-1 1c15,0 29,-16 35,-26 3,-6 5,-14 9,-21 2,-3 3,-6 6,-9 2,-3 4,-6 6,-9z"/>
  <path class="fil1 str0" d="M1222 87l9 -1c2,2 2,1 2,3 -3,2 -1,1 -4,1 -3,-1 -2,0 -5,0 0,4 5,2 5,7 0,3 -1,2 -4,2 -4,0 0,-3 -8,-3 0,6 0,0 5,8 -3,1 -6,0 -9,-2l0 -6c1,0 2,0 4,-1 -1,-3 -1,-1 -2,-4 1,-1 1,-1 2,-2 3,1 0,2 6,2l-1 -4zm-4 -3l2 1c0,0 -1,0 -1,0 -1,-1 -1,-1 -1,-1zm-5 1l0 -3 2 2 -2 1zm4 -3c2,-1 1,-1 6,-1 0,4 1,3 1,5 -4,0 -2,0 -2,-3l-5 -1zm7 -2c4,0 4,2 4,5l-3 -1c-1,-2 1,-1 -1,-4zm0 0c-4,0 -5,0 -8,0 1,-2 2,-3 6,-1 2,1 1,0 2,1zm-14 5c4,1 7,1 11,1 -1,3 0,1 0,4 -2,-1 -2,-2 -4,-3 -3,3 -4,3 -2,7 -2,0 -1,-1 -3,-1 0,2 0,6 0,10 2,1 1,1 4,2 1,1 7,2 7,-1 0,-3 -3,-4 -5,-7 6,2 0,3 11,3 2,0 4,-2 0,-6 -2,-4 -1,-1 -2,-4 0,0 8,4 8,-2 0,-3 -4,-3 -6,-3 1,-3 0,-5 -2,-6 -4,-2 -10,-4 -14,1l-2 3c-1,1 0,0 -1,2z"/>
  <path class="fil1 str2" d="M1505 719c2,-2 0,-6 7,-17 2,-3 3,-5 5,-7l30 -33c-7,2 -21,17 -27,23 -4,5 -7,9 -10,15 -4,5 -5,12 -5,19z"/>
  <path class="fil1 str2" d="M991 582c0,-11 -8,-22 -15,-26 -4,-2 -20,-6 -24,1 -1,2 0,5 -2,8 -5,2 -9,1 -11,5 -3,4 -3,9 -2,15 -1,2 -1,1 -3,3 -2,3 -4,8 -4,13l3 -9c2,-4 3,-4 6,-6 0,-4 -2,-8 1,-14 1,-2 2,-2 4,-3 4,-1 5,1 8,-3 2,-2 2,-5 3,-9 7,-4 20,1 25,4 7,6 9,15 11,19l0 2z"/>
  <path class="fil1 str2" d="M1627 607l4 2c-3,0 -8,1 -10,2 0,1 1,1 2,2 0,0 0,0 1,0 -3,0 -3,1 -3,3l1 2c-3,0 -5,2 0,3 1,0 3,0 3,0 -2,3 -4,2 -7,5 3,2 5,1 8,0 3,0 5,0 7,-2 -3,0 -4,1 -8,1 3,-3 6,-2 8,-6 1,-2 2,0 4,-3 -1,-2 -1,-2 -3,-2 0,0 0,0 0,0 0,0 1,-1 1,-1 1,0 0,1 0,0l2 -3c0,-1 2,-1 0,-2 -2,-1 -8,-1 -10,-1z"/>
  <path class="fil1 str0" d="M1257 1513c3,0 4,1 7,2l22 7c-1,-15 -22,-17 -28,-11 -1,1 0,0 -1,2z"/>
  <path class="fil1 str1" d="M1192 625c0,0 0,0 0,0 1,1 21,3 23,3 7,0 12,-2 20,-2 7,1 13,0 20,0 0,0 0,-1 0,0l-2 -1c-7,-2 -24,-4 -34,-2l-27 2z"/>
  <path class="fil1 str1" d="M1209 603c-2,-4 -15,-4 -23,-29 -4,-13 -10,-25 -21,-30 1,3 1,1 6,7 5,6 8,13 11,21 0,1 1,3 1,4 5,13 11,23 26,27z"/>
  <path class="fil1 str0" d="M1237 1522c2,1 1,1 3,1 5,3 12,4 17,7 1,1 3,2 5,3 3,-13 -10,-18 -20,-15 -2,1 -4,2 -5,4z"/>
  <path class="fil1 str2" d="M1567 592c5,0 3,-1 8,0 -3,-9 -1,-3 -1,-9 0,-4 -4,-7 -7,-7 -2,0 -3,1 -5,1 -2,0 -2,-1 -4,-2 1,2 1,11 2,12 1,2 4,5 7,5z"/>
  <path class="fil1 str2" d="M899 568c0,6 -1,9 2,13 5,4 8,1 13,3 0,-4 -1,-3 -1,-7 1,-7 -4,-10 -8,-9 -4,1 -3,2 -6,0z"/>
  <path class="fil1 str2" d="M1534 636c-2,0 -9,5 -13,7 -4,2 -17,12 -19,-5 8,0 17,-2 25,-3 2,0 3,-1 4,-1 1,0 1,0 2,0 0,0 1,-1 1,-1l1 0 -18 1c-5,1 -14,-1 -18,1 -1,3 1,10 3,13 3,3 7,4 12,2 2,-1 18,-12 20,-14z"/>
  <path class="fil1 str2" d="M971 616c-3,0 -4,0 -7,1 1,-2 5,-3 7,-4 4,-4 -1,-1 1,-3 3,-2 3,0 4,-3 -2,-1 -3,-1 -6,-1l2 -1c6,-2 3,-1 4,-3l1 -2c-4,-1 -6,-1 -11,-1 0,0 1,0 1,0l5 2c-3,0 -8,1 -11,2 1,2 1,1 4,1l-1 1c-2,1 -3,1 -3,3l1 1c-3,1 -2,0 -2,3 2,1 3,1 6,1 -3,3 -6,2 -7,5 1,1 8,0 11,-1l1 -1z"/>
  <path class="fil1 str1" d="M1244 600c6,-2 16,-15 16,-25 2,-19 11,-29 11,-31 -7,2 -12,19 -14,27 -2,7 0,12 -8,23 -3,3 -4,4 -5,6z"/>
  <path class="fil1 str0" d="M1490 1350c15,1 16,8 21,9 6,-13 -14,-22 -21,-9z"/>
  <path class="fil1 str0" d="M990 1557l-1 0c-1,-1 -1,-1 -2,-2l-4 -2c-1,2 0,0 -2,2 -1,1 -4,1 -4,4 -1,4 0,7 3,9 6,3 13,-3 10,-11z"/>
  <path class="fil1 str0" d="M1142 1498c4,6 15,13 22,14 0,-12 -14,-18 -22,-14z"/>
  <path class="fil1 str2" d="M844 711c3,-2 0,-2 3,-9 7,-17 20,-29 33,-42l7 -6c-6,2 -22,17 -27,23 -8,9 -16,21 -16,34z"/>
  <path class="fil1 str1" d="M1224 598c-5,-8 -4,-20 -4,-29 0,-9 -4,-20 -11,-22 1,2 2,2 3,5 8,13 0,30 9,44 1,1 1,2 3,2z"/>
  <path class="fil1 str0" d="M1215 1532c2,3 5,6 8,9 1,1 10,7 10,3 0,-15 -13,-15 -18,-12z"/>
  <path class="fil1 str2" d="M875 626c-2,1 -3,2 -4,3 -2,1 -3,2 -5,3 -3,1 -5,3 -8,5 -3,1 -7,4 -11,2 -4,-1 -5,-5 -5,-9 2,-1 24,-3 28,-4l2 -1c0,0 0,0 0,0 -4,0 -8,1 -12,1 -6,1 -12,1 -18,1 -3,0 -4,0 -3,3 1,7 4,14 13,12 3,-1 22,-13 23,-16z"/>
  <path class="fil1 str0" d="M1211 229c6,0 6,1 6,-6 3,0 5,0 8,0l1 6 5 0 0 7c-7,0 -6,0 -6,8l-8 0c0,-9 1,-8 -6,-8l0 -7zm4 -3c0,2 -2,2 -6,2 0,11 -1,10 6,10 0,6 0,4 0,8l12 0 0 -8c7,0 6,1 6,-8 0,-3 -2,-2 -6,-2l0 -6 -12 0 0 4z"/>
  <path class="fil1 str2" d="M1550 722c8,0 15,2 24,2l17 0c9,0 16,-2 24,-2 -2,-2 -3,-1 -7,-1l-50 0c-4,0 -6,-1 -8,1z"/>
  <path class="fil1 str0" d="M1037 1142c0,3 1,7 2,9 9,-2 10,-18 0,-21 -1,3 -2,8 -2,12z"/>
  <path class="fil1 str2" d="M890 714c6,0 10,1 17,1l30 0c7,0 11,-1 18,-1 -2,-2 -3,-1 -6,-1l-21 -1c-7,0 -21,0 -26,1 -4,0 -9,-1 -11,0 -1,1 -1,1 -1,1z"/>
  <path class="fil1 str0" d="M1361 228l0 4c3,0 3,-1 6,-1 0,3 0,3 -1,5l-2 0 0 -3 -4 0 1 -4c0,0 0,0 0,-1zm0 0l0 0zm-10 2c0,-9 8,-11 15,-9 1,4 2,2 0,5 -3,-1 -1,-7 -7,-3 -2,1 -2,1 -3,2 -1,3 0,5 -5,5zm12 7c1,1 1,1 3,1 1,-2 3,-3 2,-7 0,-3 -3,-1 -6,-1 3,-5 -1,0 6,-3 0,-5 0,-5 -2,-8 -11,0 -16,0 -16,12 7,2 7,-4 9,-6 0,-1 2,-2 3,-2 1,1 1,1 1,3l-5 1c1,9 2,7 5,7l0 3z"/>
  <path class="fil1 str2" d="M1560 685c4,0 10,0 13,1 5,0 10,0 15,0 5,1 8,0 13,0 6,0 9,-1 14,-1l-24 -2c-5,0 -18,-1 -23,0 -1,0 -2,0 -4,0 -3,0 -2,0 -4,2z"/>
  <path class="fil1 str2" d="M1564 702l0 1c8,0 16,2 24,2 9,0 17,-2 25,-2l0 -1c-16,0 -18,-2 -39,-1 -3,1 -7,1 -10,1z"/>
  <path class="fil1 str0" d="M1237 229c0,-2 2,-2 3,-3l2 1c4,5 -5,7 -5,2zm-4 -7c0,-2 1,-3 2,-4 7,0 3,6 2,6 -2,0 -2,0 -3,-1l0 -1c-1,0 -1,0 -1,0zm-1 -3l0 0zm-4 -6c4,0 3,0 3,4 -7,4 -6,-4 -3,-4zm4 6c-1,4 0,6 5,6 -2,6 -3,3 1,9l4 0c1,-2 3,-3 3,-6 -1,-2 -3,-3 -5,-3 1,-2 2,-5 0,-7 -3,-2 -5,-1 -7,0 2,-5 -4,-10 -7,-6 -2,2 -4,9 6,7z"/>
  <path class="fil1 str2" d="M1563 669l3 1c7,1 37,1 42,-1l1 0c-4,-1 -7,-2 -11,-2 -2,0 -4,1 -6,0 -3,0 -3,0 -6,0l-23 2z"/>
  <path class="fil1 str2" d="M900 676c9,0 26,2 35,2 3,0 4,-1 7,-1 2,0 10,0 12,-1 1,0 1,0 1,0 -6,0 -10,-1 -16,-1l-37 0c-1,0 -2,0 -2,1z"/>
  <path class="fil1 str2" d="M1565 654l0 1c7,0 10,2 18,0 4,-1 13,-3 15,-5 -6,0 -12,1 -16,2l-17 2z"/>
  <path class="fil1 str2" d="M903 661l0 0c3,0 4,1 7,1l31 0c4,0 4,-1 7,-1l-11 -1c-4,0 -3,-1 -11,-1l-17 1c-3,0 -3,1 -6,1z"/>
  <path class="fil1 str2" d="M1644 684c-2,1 -7,8 -11,-5 -2,-3 -3,-7 -8,-7 7,9 3,9 7,15 6,6 12,2 12,-3z"/>
  <path class="fil1 str2" d="M1602 626c0,8 -1,10 -1,14 2,-1 3,-3 4,-5 3,-8 0,-18 -6,-20 1,3 3,6 3,11z"/>
  <path class="fil1 str2" d="M1556 573c14,-9 18,0 22,1 -4,-14 -22,-9 -22,-1z"/>
  <path class="fil1 str2" d="M1607 645c0,6 2,8 5,11 3,3 5,4 11,4 -1,-1 0,0 -1,-1 -7,-4 -13,-7 -13,-19 -1,1 -2,3 -2,5z"/>
  <path class="fil1 str0" d="M1353 244c-1,0 -1,0 -1,-1 -1,-2 -1,-9 5,-9 0,3 3,3 5,5 1,1 2,3 0,5 -2,1 -3,0 -4,4 -3,0 -5,-1 -5,-4zm12 0c0,-4 -1,-5 -2,-7 -4,-1 -4,-2 -5,-3 0,-1 0,-1 -1,-2 -2,0 -4,1 -5,2 -4,6 -3,14 6,16 1,-2 2,-1 2,-4 3,-1 2,-1 5,-2z"/>
  <path class="fil1 str2" d="M905 645l0 2c9,0 11,2 27,-3 1,0 2,0 3,-1 3,-1 1,1 2,-1 -8,0 -17,3 -32,3z"/>
  <path class="fil1 str2" d="M758 679c0,6 0,9 11,9l0 0c-5,0 -6,-2 -8,-3 0,-5 -1,-4 1,-7 7,0 2,4 6,7 1,1 1,0 2,1l1 2c0,-3 -2,-4 -3,-5 0,-4 0,-6 -3,-8 -2,0 -4,0 -5,1 -1,0 -1,2 -2,3z"/>
  <path class="fil1 str2" d="M978 681c3,0 5,-2 6,-5 -1,0 -8,9 -12,-4 -1,-4 -3,-7 -6,-8 5,10 1,3 4,10 0,1 2,4 3,5 1,1 3,2 5,2z"/>
  <path class="fil1 str2" d="M903 694l26 2c9,0 15,-1 24,-1l-31 -2c-7,0 -12,1 -19,1z"/>
  <path class="fil1 str2" d="M1500 660c-1,-1 -2,-2 -3,-3 -2,-1 -2,-2 -4,-4 -1,-1 -2,-2 -2,-4 -1,-2 -1,-3 -3,-4 0,4 -1,10 6,14 2,1 3,1 6,1z"/>
  <path class="fil1 str2" d="M895 565c5,-4 12,-7 18,-2 2,2 1,1 4,3 -1,-6 -10,-13 -20,-4 0,0 0,0 0,0 -2,1 -1,1 -2,3z"/>
  <path class="fil1 str2" d="M942 618c0,4 1,4 0,9 -1,1 -1,2 -1,3 0,2 -1,1 1,2 0,-3 6,-11 1,-20 -1,-3 -2,-4 -4,-5 1,3 3,7 3,11z"/>
  <path class="fil1 str2" d="M948 634c0,8 0,13 8,17 2,1 4,1 6,1 0,-1 0,-1 -1,-1 -7,-4 -12,-6 -12,-19 -1,1 -1,0 -1,2z"/>
  <path class="fil1 str2" d="M1630 649c0,3 -1,8 5,8 0,-2 -2,-2 -2,-4 0,-5 2,-8 2,-13 -1,1 -2,2 -3,4 -1,1 -2,3 -2,5z"/>
  <path class="fil1 str0" d="M1117 285c0,-2 1,-3 2,-4l5 0c1,4 1,2 0,6l-5 1c-1,-1 -2,-3 -2,-3zm-2 -1c0,9 11,6 11,1 0,-7 -11,-8 -11,-1z"/>
  <path class="fil1 str0" d="M1215 124c0,-3 1,-3 2,-5l5 1c1,5 1,6 -4,6 -1,0 -3,0 -3,-2zm-2 -1c0,8 11,7 11,0 0,-8 -11,-7 -11,0z"/>
  <path class="fil1 str2" d="M1476 656c0,9 7,10 13,10l0 -1c-8,-1 -11,-9 -13,-11 0,1 0,1 0,2z"/>
  <path class="fil1 str0" d="M1330 275l-5 0c-2,-7 -1,-7 5,-7 2,3 2,4 0,7zm-8 -4c0,8 11,8 11,0 0,-7 -11,-6 -11,0z"/>
  <path class="fil1 str0" d="M1260 131l0 -3c4,-2 3,-2 7,0l0 4c-2,2 -2,3 -7,0l0 -1zm-2 -1c0,6 6,5 9,5 1,-2 2,-2 2,-5 0,-7 -11,-7 -11,0z"/>
  <path class="fil1 str0" d="M1139 315l0 -3c5,-3 5,-1 7,0l0 4c-2,1 -2,1 -4,2 -2,-1 0,0 -1,-1 -1,0 -1,0 -2,-1l0 -1zm-2 -1c0,7 11,7 11,0 0,-7 -11,-7 -11,0z"/>
  <path class="fil1 str0" d="M1292 326l-4 0c-3,-4 -4,-5 2,-8 5,3 5,4 2,8zm-8 -4c0,1 2,3 2,4 3,3 9,1 10,-4 0,-7 -12,-7 -12,0z"/>
  <path class="fil1 str0" d="M1142 148l4 0c1,3 3,3 0,7l-4 0c-1,0 -1,0 -1,-1l-1 -1c0,-3 0,-3 2,-5zm-4 3c0,10 11,7 11,1 0,-8 -11,-6 -11,-1z"/>
  <path class="fil1 str0" d="M1104 225c4,-2 4,-1 7,0l-1 5c-6,2 -8,0 -6,-5zm-2 2c0,10 15,5 9,-3 -2,-4 -9,-2 -9,3z"/>
  <path class="fil1 str0" d="M1127 300l0 -2c4,-3 3,-3 7,0l0 4c-3,2 -1,2 -6,1 -1,-2 -1,-2 -1,-3zm-2 0c0,7 11,7 11,0 0,-8 -11,-7 -11,0z"/>
  <path class="fil1 str0" d="M1106 206c2,-3 1,-2 4,-3 6,3 5,3 2,7l-4 0c-1,-2 -1,-2 -2,-4zm-1 0c0,9 11,7 11,1 0,-7 -11,-8 -11,-1z"/>
  <path class="fil1 str0" d="M1242 128c-2,0 -2,-1 -4,-1l0 -5c8,-6 9,6 4,6zm-6 -5c0,12 16,5 9,-3 -3,-3 -9,-1 -9,3z"/>
  <path class="fil1 str0" d="M1334 230c-2,0 -2,-1 -3,-2l0 -4c8,-5 10,6 3,6zm-5 -4c0,7 11,7 11,0 0,-7 -11,-7 -11,0z"/>
  <path class="fil1 str0" d="M1129 163c2,1 2,1 4,2l0 4c-2,0 -2,1 -4,1 -2,0 -4,0 -4,-3 0,-3 2,-3 4,-4zm-5 4c0,10 15,4 9,-3 -3,-4 -9,-3 -9,3z"/>
  <path class="fil1 str0" d="M1160 143c-6,-4 -3,-5 -2,-8l4 0c2,3 4,5 -2,8zm0 1c8,0 7,-11 0,-11 -7,0 -7,11 0,11z"/>
  <path class="fil1 str0" d="M1297 154c0,-1 1,-3 1,-4l5 0c3,5 1,5 -1,7l-4 0c0,0 -1,-2 -1,-3zm-2 -1c0,8 11,7 11,0 0,-6 -11,-7 -11,0z"/>
  <path class="fil1 str0" d="M1327 204l0 -2c4,-3 4,-3 8,0l0 4c-4,2 -2,2 -7,1 0,-1 -1,-1 -1,-3zm-1 0c0,7 11,7 11,0 0,-7 -11,-7 -11,0z"/>
  <path class="fil1 str0" d="M1120 190l-4 0c-3,-4 -3,-3 0,-7l4 0c2,4 3,3 0,7zm-7 -6l0 5c1,2 2,3 5,3 7,0 7,-11 0,-11 -3,0 -4,2 -5,3z"/>
  <path class="fil1 str0" d="M1176 337c0,-1 1,-2 1,-2 3,-3 4,-1 7,0l0 4c-3,1 -5,4 -8,-2zm-1 0c0,10 16,4 9,-4 -2,-2 -9,-1 -9,4z"/>
  <path class="fil1 str0" d="M1105 247l0 -2c3,-2 4,-2 7,0l0 4c-4,2 -3,2 -6,1 -1,-1 -1,-2 -1,-3zm-2 0c0,7 11,7 11,0 0,-7 -11,-7 -11,0z"/>
  <path class="fil1 str0" d="M1302 307c0,-1 1,-2 2,-3l3 0c3,4 3,2 0,6l-3 0c-1,0 -2,-2 -2,-3zm-2 0c0,3 2,5 6,5 2,0 3,-1 5,-2l0 -6c-2,-1 -3,-2 -5,-2 -4,0 -6,2 -6,5z"/>
  <path class="fil1 str0" d="M1324 191c-2,0 -4,-2 -4,-4 0,-3 2,-3 4,-4 8,4 3,8 0,8zm-6 -4c0,3 4,7 9,4 3,-1 2,-4 2,-7 -2,-1 -1,-2 -6,-2 -2,0 -5,3 -5,5z"/>
  <path class="fil1 str0" d="M1318 287c1,0 3,1 4,2l0 4c-1,0 -4,3 -6,1 -2,-1 -2,-3 -1,-5 1,-1 2,-2 3,-2zm-5 4c0,7 11,8 11,-1 0,-5 -11,-7 -11,1z"/>
  <path class="fil1 str0" d="M1193 125c0,-1 1,-2 2,-3l4 0c3,4 3,5 -2,7 -2,-1 -4,0 -4,-4zm4 6c3,0 4,-2 5,-3 0,-2 1,-5 -1,-6 -7,-7 -15,9 -4,9z"/>
  <path class="fil1 str0" d="M1310 169l0 -1c10,-6 9,6 5,6 -3,0 -5,-2 -5,-5zm-2 1c0,5 6,5 9,5 3,-4 2,-2 2,-8 -2,-1 -3,-3 -6,-3 -3,1 -5,3 -5,6z"/>
  <path class="fil1 str0" d="M1266 334c0,-2 1,-3 2,-4l4 0c3,4 3,5 -2,8 -1,-1 -4,-2 -4,-4zm-1 -3l0 5c5,4 5,4 10,0 0,-2 1,-8 -5,-8 -2,0 -4,2 -5,3z"/>
  <path class="fil1 str0" d="M1196 343c1,-2 1,-4 4,-4 7,0 2,15 -4,4zm-1 0c0,8 11,6 10,0 -1,-8 -10,-6 -10,0z"/>
  <path class="fil1 str0" d="M1180 134c-3,0 -3,-1 -5,-2l0 -4c5,-3 6,-2 8,2 -1,1 -2,4 -3,4zm-2 1l4 0c2,-3 2,-2 2,-6 0,-3 -5,-6 -9,-3 -3,2 -2,9 3,9z"/>
  <path class="fil1 str0" d="M1157 327c0,-1 0,-2 1,-2 5,-6 10,6 2,6 -2,0 -3,-2 -3,-4zm3 6c3,0 5,-2 6,-5 1,-3 -1,-4 -3,-6l-5 0c-1,2 -4,3 -3,6 1,2 3,5 5,5z"/>
  <path class="fil1 str0" d="M1220 346c0,-7 11,-4 7,2 -2,2 -4,2 -5,0 -1,0 -2,-2 -2,-2zm-2 -1l0 3c3,2 2,3 7,3 5,0 6,-11 -1,-11 -2,0 -6,1 -6,5z"/>
  <path class="fil1 str0" d="M1245 342l0 -2c4,-2 3,-2 7,0l0 4c-3,2 -1,2 -6,1 -1,-1 -1,-1 -1,-3zm-2 0c0,3 1,3 3,5l5 0c1,-1 3,-2 3,-4 0,-8 -11,-8 -11,-1z"/>
  <path class="fil1 str0" d="M1109 266c0,-2 2,-3 4,-4 6,3 3,5 2,7l-4 0c-1,-1 -2,-2 -2,-3zm-1 -3c0,3 -1,8 5,8 1,0 3,0 3,-1 2,-2 2,-4 2,-7 -6,-3 -5,-3 -10,0z"/>
  <path class="fil1 str0" d="M1334 253c-2,-1 -4,-1 -4,-4 0,-7 15,-2 4,4zm-5 -7l0 6c2,2 1,2 5,2 6,0 7,-9 1,-10 -3,-1 -4,1 -6,2z"/>
  <path class="fil1 str2" d="M1556 531c2,0 6,0 9,0 3,1 4,2 7,2 -5,-8 -15,-5 -16,-2z"/>
  <path class="fil1 str2" d="M1525 570l0 1c6,1 10,6 12,8 0,-4 0,-5 -2,-7 -5,-4 -8,-3 -10,-2z"/>
  <path class="fil1 str0" d="M1280 141c0,-5 7,-5 7,0 0,5 -7,5 -7,0zm-1 -2l-1 5c4,3 3,2 6,2 2,0 3,0 4,-1 2,-2 3,-9 -6,-9l-3 3z"/>
  <path class="fil1 str2" d="M840 652c-1,-2 -2,-2 -4,-3 0,0 -1,-1 -2,-1 0,-1 -1,-2 -1,-2 -2,-3 -3,-5 -4,-9l-1 0c0,8 3,15 12,15z"/>
  <path class="fil1 str0" d="M1209 220c-2,0 -3,-1 -3,-2 2,-5 4,-5 6,0l-1 0c-1,2 -1,2 -2,2zm-5 -5l0 5c6,3 4,3 9,0l0 -5c-2,-2 -1,-2 -7,-2l-2 2z"/>
  <path class="fil1 str0" d="M1357 244c-2,0 -2,0 -3,-1 0,-2 1,-4 1,-6 4,1 1,2 4,3l0 1c-3,0 -2,0 -2,3zm-4 0c1,1 2,2 5,2 0,-7 3,-1 4,-7l-2 0c-1,-2 -3,-3 -5,-4 -2,3 -2,6 -2,9z"/>
  <path class="fil1 str0" d="M1229 367c-1,0 -4,-1 -5,-1 0,-3 0,-1 2,-2 2,-1 1,-2 3,-2l2 1c-2,3 -2,-1 -2,4zm-1 3c3,-1 2,-1 2,-5 2,-1 2,0 3,-2 -1,-1 -1,-1 -1,-1 -3,-3 -4,-2 -5,-1 -2,1 -4,3 -5,4 2,4 4,1 6,5z"/>
  <path class="fil1 str2" d="M1511 599l0 1c1,0 12,4 13,4 0,-5 -9,-7 -13,-5z"/>
  <path class="fil1 str0" d="M1220 256c-3,0 -4,1 -4,-4 1,-1 2,-1 3,-1 0,0 5,1 1,5zm-6 -3c0,6 9,8 9,-1l0 -1c-2,-1 -3,-2 -5,-2 -2,0 -4,2 -4,4z"/>
  <path class="fil1 str0" d="M1218 218c-4,0 -2,-8 2,-5 3,1 1,5 -2,5zm-4 -3c0,2 1,4 4,4 2,1 3,0 5,-2l0 -4c-2,-1 -3,-3 -5,-3 -2,1 -4,2 -4,5z"/>
  <path class="fil1 str0" d="M1203 246c-4,0 -3,0 -3,-4l2 -2c7,4 2,6 1,6zm-5 0l0 0 3 2c3,0 3,0 5,-1l0 0c3,-10 -6,-8 -8,-5 0,1 0,2 0,4z"/>
  <path class="fil1 str2" d="M975 649c-1,-3 -4,-2 -2,-8 0,-3 1,-6 2,-9 -2,2 -2,1 -3,4 -2,2 -2,2 -2,5 -1,4 0,7 5,8z"/>
  <path class="fil1 str2" d="M828 658l0 -1c-2,0 -3,-1 -4,-2 -6,-3 -5,-7 -8,-9 0,5 1,9 6,11 3,1 3,1 6,1z"/>
  <path class="fil1 str2" d="M1562 525l6 2c1,1 1,1 3,1 2,1 0,1 3,1 -2,-7 -10,-7 -12,-4z"/>
  <path class="fil1 str2" d="M1516 589c2,2 11,5 13,5 -2,-4 -3,-6 -10,-6 -1,0 -2,0 -3,1z"/>
  <path class="fil1 str2" d="M895 523c4,0 6,-1 9,0 8,1 4,1 7,2 -1,-2 0,-2 -2,-4 -4,-2 -11,-2 -14,2z"/>
  <path class="fil1 str2" d="M1519 579c1,2 10,6 12,6 -1,-4 -6,-9 -12,-6z"/>
  <path class="fil1 str2" d="M1508 613c1,2 0,1 5,3 3,0 5,1 7,1 -1,-5 -8,-6 -12,-4z"/>
  <path class="fil1 str2" d="M1469 670c2,0 0,0 2,-1 -1,-2 -1,-1 -5,-4 -2,-1 -2,-2 -5,-3 0,5 4,8 8,8z"/>
  <path class="fil1 str2" d="M1452 673c0,6 5,7 10,6l0 -1c-6,-1 -6,-5 -9,-6 0,0 -1,1 -1,1z"/>
  <path class="fil1 str1" d="M1235 638c-2,-4 -9,-8 -13,-8 1,3 9,8 13,8z"/>
  <path class="fil1 str2" d="M864 563c7,0 11,6 13,7 0,-7 -6,-8 -13,-8l0 1z"/>
  <path class="fil1 str2" d="M864 596c-2,-6 -10,-5 -14,-5 2,1 1,0 6,2 3,1 6,2 8,3z"/>
  <path class="fil1 str2" d="M1558 539l10 0c0,-3 1,-1 -1,-3 -3,-2 -8,-1 -9,3z"/>
  <path class="fil1 str2" d="M859 571c2,2 3,1 5,2 5,2 3,3 6,4 -1,-6 -7,-8 -11,-6z"/>
  <path class="fil1 str2" d="M1440 688c0,4 3,5 6,5 3,0 0,1 2,0 0,-2 -6,-6 -7,-6 0,0 -1,1 -1,1z"/>
  <path class="fil1 str2" d="M1435 691c0,4 2,5 7,5 -1,0 -4,-6 -6,-7 -1,1 -1,1 -1,2z"/>
  <path class="fil1 str2" d="M902 516c2,3 0,0 6,2 2,1 3,3 5,3 -2,-4 -2,-6 -9,-6 -1,0 -2,1 -2,1z"/>
  <path class="fil1 str2" d="M848 606c5,0 7,2 12,3 -1,-3 -3,-4 -5,-5 -2,0 -3,0 -4,0 -2,0 -2,0 -3,2z"/>
  <path class="fil1 str2" d="M801 671l0 -2c-4,0 -7,-2 -8,-5l-1 0c0,8 5,7 9,7z"/>
  <path class="fil1 str2" d="M856 580l9 4c2,1 0,1 3,1 -3,-5 -7,-5 -12,-5z"/>
  <path class="fil1 str2" d="M801 655c0,1 -1,2 3,4 1,2 3,2 6,2l0 -1c-5,-1 -7,-5 -8,-5 -1,-1 0,-1 -1,0z"/>
  <path class="fil1 str2" d="M1447 683l0 3c3,2 3,2 6,1l-5 -6c0,0 -1,0 -1,2z"/>
  <path class="fil1 str2" d="M781 688c-1,-3 -1,0 -4,-5 -1,-3 0,-2 -2,-2 0,5 1,7 6,7z"/>
  <path class="fil1 str2" d="M898 531c3,0 3,-1 6,-1 2,0 1,0 4,1 -2,-5 -7,-4 -10,0z"/>
  <path class="fil1 str2" d="M788 685l0 -2c-3,0 -6,-2 -6,-4l-1 0c-1,5 1,6 7,6z"/>
  <path class="fil1 str2" d="M1580 525c3,-4 0,-6 -2,-6 -3,0 -2,2 -1,3 1,1 2,2 3,3z"/>
  <path class="fil1 str2" d="M787 674c0,3 2,7 6,5l-5 -6c-1,0 -1,0 -1,1z"/>
  <path class="fil1 str2" d="M915 512l5 5c1,-1 2,-6 -3,-6 0,0 -2,0 -2,1z"/>
  <path class="fil1 str2" d="M1591 522c2,2 4,1 4,-1 -2,-1 -1,-1 -4,-1l0 2z"/>
  <path class="fil1 str2" d="M931 513c0,2 1,2 2,2l0 -3c-1,0 -2,0 -2,1z"/>
  <path class="fil1 str0" d="M766 1578c0,-2 0,-3 -2,-4 1,1 1,2 1,2 0,0 0,1 0,1l1 1z"/>
  <polygon class="fil1 str2" points="804,737 805,737 805,732 804,732 "/>
  <polygon class="fil1 str2" points="1471,754 1475,754 1475,753 1471,753 "/>
  <polygon class="fil1 str2" points="810,746 813,746 813,745 810,745 "/>
  <path class="fil1 str2" d="M1538 633c2,-1 2,0 2,-2 -2,1 -1,0 -2,2z"/>
  <path class="fil1 str2" d="M878 625c2,-1 1,0 2,-2 -3,1 -1,0 -2,2z"/>
  <path class="fil1 str2" d="M1538 633c-1,-1 1,-1 -2,-1 -3,0 -1,0 -1,1l3 0z"/>
  <path class="fil1 str1" d="M1282 613l2 0 0 -2c-1,1 0,0 -1,1 -1,0 -1,0 -1,1z"/>
  <polygon class="fil1 str2" points="804,741 805,741 805,739 804,739 "/>
  <polygon class="fil1 str2" points="1465,746 1466,746 1466,743 1465,743 "/>
  <path class="fil1 str2" d="M805 726c-1,2 -1,4 -1,6l1 -6z"/>
  <path class="fil1 str1" d="M1269 617l-3 0 0 1c1,0 1,0 1,0 2,-1 1,-1 2,-1z"/>
  <polygon class="fil1 str2" points="875,625 877,625 877,624 875,624 "/>
  <path class="fil1 str2" d="M872 625l2 0 0 0c-3,0 -1,0 -2,0z"/>
  <path class="fil1 str2" d="M885 650l2 0 0 -1c-3,0 -1,0 -2,1z"/>
  <path class="fil1 str2" d="M1545 658l2 0 0 -1c-3,0 -1,0 -2,1z"/>
  <path class="fil1 str2" d="M990 676l0 2 0 0c0,-3 0,-1 0,-2z"/>
  <path class="fil1 str2" d="M1536 635c2,-1 1,0 2,-2 -2,1 -1,0 -2,2z"/>
  <path class="fil1 str0" d="M1694 1580c1,-1 1,0 1,-2 -1,1 -1,0 -1,2z"/>
  <path class="fil1 str0" d="M1695 1578c2,-1 1,0 1,-2 -1,1 0,0 -1,2z"/>
  <path class="fil1 str2" d="M1534 636c2,0 1,0 2,-1 -2,0 -1,0 -2,1z"/>
  <path class="fil1 str1" d="M1279 614c-3,0 -1,0 -2,0 3,0 1,1 2,0z"/>
  <path class="fil1 str2" d="M986 688c0,0 0,1 0,-2 0,1 0,-1 0,2z"/>
  <path class="fil1 str1" d="M1276 615c-3,0 -1,0 -2,1 3,0 1,0 2,-1z"/>
  <path class="fil1 str1" d="M1271 616c0,0 -1,0 -1,0 -1,1 -1,1 -1,1 0,0 1,0 1,0 1,0 1,0 1,-1z"/>
  <path class="fil1 str1" d="M1274 616c0,0 -1,0 -1,0 -1,0 -1,0 -2,0 1,0 1,0 2,0 1,0 0,0 1,0z"/>
  <polygon class="fil1 str0" points="1290,1427 1290,1428 1291,1427 "/>
  <polygon class="fil1 str2" points="1598,567 1597,567 1598,567 "/>
  <polygon class="fil1 str0" points="1054,1162 1054,1161 1053,1162 "/>
  <polygon class="fil1 str2" points="1627,607 1627,606 1626,607 "/>
  <polygon class="fil1 str2" points="987,685 988,685 987,684 "/>
  <polygon class="fil1 str1" points="1271,544 1272,544 1271,544 "/>
  <polygon class="fil1 str0" points="1195,1532 1195,1532 1195,1532 "/>
  <polygon class="fil1 str2" points="1539,640 1539,639 1538,640 "/>
  <polygon class="fil1 str1" points="1235,638 1235,638 1235,638 "/>
  <polygon class="fil1 str0" points="1020,1074 1021,1074 1021,1073 "/>
  <polygon class="fil1 str2" points="899,568 899,567 898,568 "/>
  <polygon class="fil1 str1" points="1295,657 1295,657 1295,657 "/>
  <polygon class="fil1 str1" points="1305,542 1306,542 1305,541 "/>
  <polygon class="fil1 str2" points="879,632 879,631 878,631 "/>
  <polygon class="fil1 str2" points="966,599 966,598 966,599 "/>
  <polygon class="fil1 str1" points="1244,600 1244,600 1244,601 "/>
  <polygon class="fil1 str0" points="1693,1582 1692,1582 1692,1583 "/>
  <polygon class="fil1 str2" points="1538,633 1538,633 1538,633 "/>
  <path class="fil1 str2" d="M1465 751c0,0 0,-1 0,0l0 0c0,0 0,0 0,0z"/>
  <path class="fil1 str2" d="M1466 754l0 0c0,0 -1,0 0,0z"/>
  <polygon class="fil1 str2" points="878,625 877,625 "/>
  <polygon class="fil1 str2" points="938,557 937,558 "/>
  <polygon class="fil1 str2" points="1647,695 1647,693 "/>
  <polygon class="fil1 str2" points="877,625 877,626 "/>
  <polygon class="fil1 str2" points="971,616 973,616 "/>
  <polygon class="fil1 str2" points="991,582 992,583 "/>
  <polygon class="fil1 str1" points="1280,613 1279,614 "/>
  <polygon class="fil1 str0" points="766,1578 767,1580 "/>
  <polygon class="fil1 str1" points="1282,613 1280,613 "/>
  <polygon class="fil1 str2" points="986,686 987,685 "/>
  <polygon class="fil1 str0" points="1693,1581 1693,1582 "/>
  <polygon class="fil1 str1" points="1277,614 1276,615 "/>
  <polygon class="fil1 str2" points="877,626 875,626 "/>
  <polygon class="fil1 str2" points="1431,695 1431,696 "/>
  <polygon class="fil1 str0" points="1693,1581 1694,1580 "/>
  <path class="fil1 str0" d="M1629 1535l-3 2c-4,6 -3,3 -5,10 14,3 4,0 19,-6 13,-6 18,1 21,-11 -6,0 -12,1 -19,2 -5,1 -10,2 -13,3z"/>
  <path class="fil2 str3" d="M718 399c0,0 218,162 500,26 12,7 258,138 505,-11 2,225 29,516 -51,727 -38,138 -236,358 -454,420 0,0 -177,-51 -360,-261 -111,-135 -145,-314 -145,-497 -1,-143 4,-280 5,-404z"/>
  <line class="fil2 str3" x1="715" y1="801" x2="1725" y2= "801" />
 </g>
</svg>
